<svg width="354" height="59" viewBox="0 0 354 59" fill="none" xmlns="http://www.w3.org/2000/svg">
<g clip-path="url(#clip0_101_2011)">
<path d="M96.6808 58.6637C96.6808 58.771 96.6808 58.7781 96.6311 58.8067C96.3541 58.9425 95.9422 58.9854 95.6155 58.9854C94.6 58.9854 93.6981 58.5208 93.6981 57.4055C93.6981 56.7621 94.039 56.3117 94.4225 56.0901C94.8202 55.8542 95.1894 55.8328 95.5374 55.8328C95.8215 55.8328 96.1908 55.8828 96.2689 55.8971C96.3541 55.9114 96.4961 55.9328 96.5956 55.94C96.6453 55.94 96.6524 55.9614 96.6524 55.99C96.6524 56.0401 96.624 56.1473 96.624 56.6549C96.624 56.7192 96.6027 56.7478 96.5672 56.7478C96.5387 56.7478 96.5316 56.7264 96.5245 56.6978C96.5174 56.6048 96.489 56.4833 96.3825 56.3689C96.2618 56.2403 95.9493 56.0615 95.4806 56.0615C95.2534 56.0615 94.9693 56.0615 94.6781 56.2974C94.4438 56.4905 94.2946 56.7836 94.2946 57.2768C94.2946 58.1419 94.8486 58.7781 95.7363 58.7781C95.8428 58.7781 95.928 58.7781 96.0274 58.7352C96.0913 58.7066 96.1056 58.6637 96.1056 58.5922V58.2205C96.1056 58.0203 96.1056 57.8702 96.1056 57.7487C96.1056 57.6128 96.0558 57.57 95.928 57.5342C95.8925 57.5271 95.8215 57.5199 95.7647 57.5199C95.7292 57.5199 95.7008 57.4985 95.7008 57.477C95.7008 57.4413 95.7363 57.4413 95.7931 57.4413C96.0132 57.4413 96.3044 57.4484 96.4322 57.4484C96.5671 57.4484 96.7802 57.4413 96.9151 57.4413C96.9719 57.4413 97.0003 57.4413 97.0003 57.477C97.0003 57.4985 96.979 57.5199 96.9506 57.5199C96.9151 57.5199 96.8867 57.5199 96.837 57.5342C96.7234 57.5557 96.6808 57.6128 96.6737 57.7487C96.6737 57.8702 96.6737 58.0346 96.6737 58.2348V58.678L96.6808 58.6637Z" fill="#78797F"/>
<path d="M97.8523 57.4058C97.8523 56.7195 98.3352 55.8259 99.5922 55.8259C100.636 55.8259 101.289 56.4121 101.289 57.3343C101.289 58.2565 100.622 58.9857 99.5496 58.9857C98.3423 58.9857 97.8523 58.1207 97.8523 57.4058ZM100.672 57.4844C100.672 56.5908 100.139 56.0403 99.4715 56.0403C99.0099 56.0403 98.4701 56.2834 98.4701 57.2842C98.4701 58.1135 98.9388 58.7712 99.72 58.7712C100.011 58.7712 100.672 58.6354 100.672 57.4844Z" fill="#78797F"/>
<path d="M102.532 57.0557C102.532 56.4408 102.532 56.3336 102.532 56.2049C102.525 56.0691 102.483 56.0262 102.355 55.9833C102.319 55.9762 102.248 55.969 102.191 55.969C102.149 55.969 102.12 55.9547 102.12 55.9261C102.12 55.8975 102.156 55.8904 102.213 55.8904C102.433 55.8904 102.696 55.8975 102.774 55.8975C102.98 55.8975 103.257 55.8904 103.399 55.8904C104.144 55.8904 104.279 56.2764 104.279 56.4909C104.279 56.8054 104.045 57.0485 103.811 57.1986C104.151 57.3059 104.57 57.599 104.57 58.0708C104.57 58.4997 104.23 58.9501 103.47 58.9501C103.42 58.9501 103.278 58.9501 103.143 58.9358C103.001 58.9358 102.859 58.9287 102.788 58.9287C102.738 58.9287 102.653 58.9287 102.554 58.9287C102.454 58.9287 102.348 58.9358 102.269 58.9358C102.22 58.9358 102.191 58.9215 102.191 58.8929C102.191 58.8715 102.206 58.85 102.255 58.85C102.319 58.85 102.362 58.85 102.404 58.8357C102.49 58.8143 102.511 58.7428 102.525 58.6213C102.546 58.4497 102.546 58.1351 102.546 57.7634V57.0557H102.532ZM103.072 57.12C103.072 57.12 103.086 57.1557 103.1 57.1629C103.136 57.17 103.2 57.1772 103.292 57.1772C103.427 57.1772 103.548 57.1629 103.619 57.1057C103.725 57.0199 103.811 56.8698 103.811 56.6768C103.811 56.4051 103.647 56.0691 103.292 56.0691C103.235 56.0691 103.157 56.0691 103.115 56.0763C103.086 56.0763 103.079 56.0977 103.079 56.1406V57.1128L103.072 57.12ZM103.072 58.3067C103.072 58.5712 103.086 58.6499 103.221 58.7071C103.328 58.7499 103.427 58.7571 103.519 58.7571C103.74 58.7571 104.031 58.6356 104.031 58.1852C104.031 57.9993 103.953 57.6848 103.64 57.4703C103.555 57.406 103.441 57.3631 103.285 57.3631H103.107C103.107 57.3631 103.086 57.3631 103.086 57.3917V58.3067H103.072Z" fill="#78797F"/>
<path d="M105.828 57.0555C105.828 56.4407 105.828 56.3334 105.828 56.2048C105.821 56.0689 105.778 56.0189 105.686 55.9903C105.636 55.976 105.586 55.9688 105.536 55.9688C105.494 55.9688 105.473 55.9617 105.473 55.9188C105.473 55.8974 105.508 55.8831 105.572 55.8831C105.728 55.8831 106.012 55.8902 106.126 55.8902C106.232 55.8902 106.495 55.8831 106.658 55.8831C106.708 55.8831 106.744 55.8902 106.744 55.9188C106.744 55.9545 106.722 55.9688 106.68 55.9688C106.637 55.9688 106.602 55.9688 106.559 55.9831C106.445 56.0046 106.41 56.0618 106.403 56.2048C106.396 56.3334 106.396 56.4478 106.396 57.0555V57.7632C106.396 58.1493 106.396 58.471 106.417 58.6425C106.431 58.7498 106.46 58.8141 106.58 58.8356C106.637 58.8427 106.73 58.8499 106.793 58.8499C106.843 58.8499 106.857 58.8713 106.857 58.8927C106.857 58.9213 106.822 58.9356 106.779 58.9356C106.509 58.9356 106.225 58.9213 106.112 58.9213C106.019 58.9213 105.735 58.9356 105.572 58.9356C105.522 58.9356 105.494 58.9213 105.494 58.8927C105.494 58.8713 105.508 58.8499 105.558 58.8499C105.622 58.8499 105.664 58.8499 105.707 58.8356C105.792 58.8141 105.813 58.7569 105.828 58.6425C105.849 58.4781 105.849 58.1564 105.849 57.7632V57.0555H105.828Z" fill="#78797F"/>
<path d="M108.221 57.0557C108.221 56.4409 108.221 56.3337 108.221 56.205C108.214 56.0691 108.171 56.0262 108.043 55.9834C108.008 55.9762 107.937 55.9691 107.88 55.9691C107.837 55.9691 107.809 55.9548 107.809 55.9262C107.809 55.8976 107.844 55.8904 107.901 55.8904C108.121 55.8904 108.384 55.8976 108.498 55.8976C108.633 55.8976 109.549 55.8976 109.627 55.8976C109.705 55.8976 109.769 55.8761 109.804 55.8761C109.826 55.8761 109.854 55.8547 109.868 55.8547C109.89 55.8547 109.897 55.8761 109.897 55.8904C109.897 55.919 109.876 55.9691 109.861 56.1478C109.861 56.1907 109.847 56.3623 109.84 56.4123C109.84 56.4337 109.826 56.4766 109.79 56.4766C109.762 56.4766 109.755 56.4552 109.755 56.4266C109.755 56.398 109.755 56.3265 109.726 56.2765C109.691 56.205 109.662 56.1478 109.457 56.1263C109.386 56.1192 108.888 56.1049 108.803 56.1049C108.782 56.1049 108.775 56.1192 108.775 56.1406V57.1343C108.775 57.1343 108.775 57.1772 108.803 57.1772C108.896 57.1772 109.435 57.1772 109.528 57.1701C109.627 57.1629 109.691 57.1486 109.726 57.1057C109.762 57.0771 109.776 57.0557 109.79 57.0557C109.805 57.0557 109.826 57.0771 109.826 57.0986C109.826 57.12 109.819 57.1915 109.79 57.3917C109.783 57.4703 109.769 57.6348 109.769 57.6634C109.769 57.6991 109.769 57.7563 109.726 57.7563C109.698 57.7563 109.691 57.742 109.691 57.7205C109.691 57.6776 109.691 57.6276 109.677 57.5704C109.655 57.4918 109.599 57.4274 109.442 57.4131C109.364 57.406 108.896 57.3917 108.789 57.3917C108.768 57.3917 108.768 57.4131 108.768 57.4346V57.7563C108.768 57.8921 108.768 58.2353 108.768 58.3568C108.775 58.6285 108.903 58.6928 109.329 58.6928C109.435 58.6928 109.613 58.6928 109.719 58.6428C109.826 58.5927 109.868 58.5069 109.897 58.3425C109.904 58.2996 109.918 58.2782 109.947 58.2782C109.982 58.2782 109.982 58.3282 109.982 58.3711C109.982 58.464 109.947 58.7357 109.925 58.8143C109.897 58.9216 109.861 58.9216 109.705 58.9216C109.393 58.9216 109.144 58.9216 108.945 58.9073C108.739 58.9073 108.59 58.9001 108.462 58.9001C108.413 58.9001 108.327 58.9001 108.228 58.9001C108.129 58.9001 108.022 58.9073 107.944 58.9073C107.894 58.9073 107.866 58.893 107.866 58.8644C107.866 58.8429 107.88 58.8215 107.93 58.8215C107.994 58.8215 108.036 58.8215 108.079 58.8072C108.164 58.7857 108.185 58.7142 108.2 58.5927C108.221 58.4211 108.221 58.1066 108.221 57.7348V57.0271V57.0557Z" fill="#78797F"/>
<path d="M111.31 57.0557C111.31 56.4408 111.31 56.3336 111.31 56.2049C111.303 56.0691 111.26 56.0262 111.132 55.9833C111.097 55.9762 111.026 55.969 110.969 55.969C110.926 55.969 110.898 55.9547 110.898 55.9261C110.898 55.8975 110.934 55.8904 110.99 55.8904C111.21 55.8904 111.473 55.8975 111.558 55.8975C111.7 55.8975 112.077 55.8904 112.205 55.8904C112.467 55.8904 112.773 55.9118 112.993 56.062C113.114 56.1406 113.284 56.3479 113.284 56.6196C113.284 56.9198 113.114 57.1843 112.709 57.5132C113.078 57.9707 113.369 58.3353 113.618 58.5855C113.852 58.8143 113.994 58.8357 114.058 58.85C114.101 58.8572 114.122 58.8572 114.158 58.8572C114.193 58.8572 114.207 58.8786 114.207 58.9001C114.207 58.9358 114.179 58.943 114.129 58.943H113.732C113.497 58.943 113.391 58.9215 113.277 58.8643C113.099 58.7714 112.943 58.5855 112.709 58.271C112.546 58.0565 112.368 57.7848 112.318 57.7205C112.297 57.6991 112.269 57.6919 112.24 57.6919H111.871C111.871 57.6919 111.835 57.6919 111.835 57.7134V57.7705C111.835 58.1423 111.835 58.4568 111.857 58.6284C111.871 58.7499 111.892 58.8214 112.02 58.8429C112.084 58.85 112.169 58.8572 112.226 58.8572C112.262 58.8572 112.276 58.8786 112.276 58.9001C112.276 58.9287 112.24 58.943 112.19 58.943C111.949 58.943 111.608 58.9287 111.544 58.9287C111.466 58.9287 111.203 58.943 111.033 58.943C110.983 58.943 110.955 58.9287 110.955 58.9001C110.955 58.8786 110.969 58.8572 111.019 58.8572C111.083 58.8572 111.125 58.8572 111.168 58.8429C111.253 58.8214 111.274 58.7499 111.289 58.6284C111.31 58.4568 111.31 58.1423 111.31 57.7705V57.0628V57.0557ZM111.835 57.3702C111.835 57.4131 111.843 57.4274 111.871 57.4417C111.963 57.4703 112.084 57.4774 112.183 57.4774C112.347 57.4774 112.404 57.4631 112.475 57.4131C112.602 57.3202 112.744 57.1486 112.744 56.8126C112.744 56.2407 112.361 56.0977 112.112 56.0977C112.006 56.0977 111.906 56.0977 111.871 56.112C111.843 56.1191 111.835 56.1334 111.835 56.1692V57.3702Z" fill="#78797F"/>
<path d="M115.266 58.3854C115.273 58.7 115.33 58.7929 115.408 58.8215C115.479 58.843 115.557 58.8501 115.628 58.8501C115.678 58.8501 115.699 58.8716 115.699 58.893C115.699 58.9287 115.664 58.9359 115.607 58.9359C115.337 58.9359 115.145 58.9216 115.067 58.9216C115.031 58.9216 114.833 58.9359 114.62 58.9359C114.563 58.9359 114.527 58.9359 114.527 58.893C114.527 58.8716 114.556 58.8501 114.591 58.8501C114.648 58.8501 114.726 58.8501 114.783 58.8287C114.889 58.8001 114.904 58.6928 114.911 58.3425L114.946 55.9548C114.946 55.8762 114.975 55.819 115.017 55.819C115.067 55.819 115.124 55.8833 115.195 55.9548C115.245 56.0048 115.869 56.6482 116.473 57.2416C116.757 57.5204 117.304 58.0923 117.368 58.1495H117.389L117.347 56.3551C117.347 56.1121 117.304 56.0406 117.205 55.9977C117.141 55.9762 117.041 55.9762 116.984 55.9762C116.935 55.9762 116.921 55.9548 116.921 55.9333C116.921 55.8976 116.963 55.8976 117.027 55.8976C117.247 55.8976 117.467 55.9048 117.553 55.9048C117.602 55.9048 117.758 55.8976 117.957 55.8976C118.014 55.8976 118.05 55.8976 118.05 55.9333C118.05 55.9548 118.028 55.9762 117.979 55.9762C117.936 55.9762 117.901 55.9762 117.851 55.9905C117.737 56.0263 117.702 56.0978 117.702 56.3194L117.652 58.8573C117.652 58.9502 117.616 58.9859 117.588 58.9859C117.517 58.9859 117.46 58.943 117.418 58.9002C117.162 58.6571 116.644 58.1638 116.21 57.742C115.756 57.3059 115.323 56.8198 115.237 56.7483H115.223L115.273 58.3926L115.266 58.3854Z" fill="#78797F"/>
<path d="M118.944 57.4058C118.944 56.7195 119.427 55.8259 120.684 55.8259C121.728 55.8259 122.381 56.4121 122.381 57.3343C122.381 58.2565 121.714 58.9857 120.641 58.9857C119.434 58.9857 118.944 58.1207 118.944 57.4058ZM121.764 57.4844C121.764 56.5908 121.231 56.0403 120.563 56.0403C120.102 56.0403 119.562 56.2834 119.562 57.2842C119.562 58.1135 120.031 58.7712 120.812 58.7712C121.103 58.7712 121.764 58.6354 121.764 57.4844Z" fill="#78797F"/>
<path d="M125.641 57.0557C125.641 56.4408 125.641 56.3336 125.641 56.2049C125.634 56.0691 125.591 56.0262 125.464 55.9833C125.428 55.9762 125.357 55.969 125.3 55.969C125.258 55.969 125.229 55.9547 125.229 55.9261C125.229 55.8975 125.265 55.8904 125.322 55.8904C125.542 55.8904 125.804 55.8975 125.918 55.8975C126.046 55.8975 126.344 55.8904 126.593 55.8904C127.111 55.8904 127.807 55.8904 128.262 56.3479C128.468 56.5552 128.652 56.8912 128.652 57.3702C128.652 57.8778 128.432 58.2638 128.198 58.4926C128.006 58.6856 127.573 58.9644 126.806 58.9644C126.657 58.9644 126.479 58.9501 126.309 58.943C126.145 58.9287 125.996 58.9215 125.89 58.9215C125.84 58.9215 125.755 58.9215 125.655 58.9215C125.556 58.9215 125.449 58.9287 125.371 58.9287C125.322 58.9287 125.293 58.9144 125.293 58.8858C125.293 58.8643 125.307 58.8429 125.357 58.8429C125.421 58.8429 125.464 58.8429 125.506 58.8286C125.591 58.8071 125.613 58.7356 125.627 58.6141C125.648 58.4425 125.648 58.128 125.648 57.7562V57.0485L125.641 57.0557ZM126.195 57.4989C126.195 57.9278 126.195 58.2352 126.202 58.3139C126.202 58.4139 126.216 58.5569 126.252 58.5998C126.302 58.6785 126.472 58.7642 126.792 58.7642C127.168 58.7642 127.445 58.6999 127.693 58.4926C127.963 58.271 128.049 57.9064 128.049 57.4917C128.049 56.977 127.843 56.6482 127.665 56.4837C127.282 56.1406 126.834 56.0977 126.508 56.0977C126.422 56.0977 126.287 56.1048 126.252 56.1263C126.216 56.1406 126.202 56.162 126.202 56.2049C126.202 56.3408 126.202 56.6768 126.202 56.9913V57.4989H126.195Z" fill="#78797F"/>
<path d="M129.98 57.0557C129.98 56.4409 129.98 56.3337 129.98 56.205C129.973 56.0691 129.93 56.0262 129.803 55.9834C129.767 55.9762 129.696 55.9691 129.639 55.9691C129.597 55.9691 129.568 55.9548 129.568 55.9262C129.568 55.8976 129.604 55.8904 129.661 55.8904C129.881 55.8904 130.143 55.8976 130.257 55.8976C130.392 55.8976 131.308 55.8976 131.386 55.8976C131.464 55.8976 131.528 55.8761 131.564 55.8761C131.585 55.8761 131.613 55.8547 131.628 55.8547C131.649 55.8547 131.656 55.8761 131.656 55.8904C131.656 55.919 131.635 55.9691 131.621 56.1478C131.621 56.1907 131.606 56.3623 131.599 56.4123C131.599 56.4337 131.585 56.4766 131.55 56.4766C131.521 56.4766 131.514 56.4552 131.514 56.4266C131.514 56.398 131.514 56.3265 131.486 56.2765C131.45 56.205 131.422 56.1478 131.216 56.1263C131.145 56.1192 130.648 56.1049 130.562 56.1049C130.541 56.1049 130.534 56.1192 130.534 56.1406V57.1343C130.534 57.1343 130.534 57.1772 130.562 57.1772C130.655 57.1772 131.194 57.1772 131.287 57.1701C131.386 57.1629 131.45 57.1486 131.486 57.1057C131.521 57.0771 131.535 57.0557 131.55 57.0557C131.564 57.0557 131.585 57.0771 131.585 57.0986C131.585 57.12 131.578 57.1915 131.55 57.3917C131.542 57.4703 131.528 57.6348 131.528 57.6634C131.528 57.6991 131.528 57.7563 131.486 57.7563C131.457 57.7563 131.45 57.742 131.45 57.7205C131.45 57.6776 131.45 57.6276 131.436 57.5704C131.415 57.4918 131.358 57.4274 131.202 57.4131C131.123 57.406 130.655 57.3917 130.548 57.3917C130.527 57.3917 130.527 57.4131 130.527 57.4346V57.7563C130.527 57.8921 130.527 58.2353 130.527 58.3568C130.534 58.6285 130.662 58.6928 131.088 58.6928C131.194 58.6928 131.372 58.6928 131.479 58.6428C131.585 58.5927 131.628 58.5069 131.656 58.3425C131.663 58.2996 131.677 58.2782 131.706 58.2782C131.741 58.2782 131.741 58.3282 131.741 58.3711C131.741 58.464 131.706 58.7357 131.685 58.8143C131.656 58.9216 131.621 58.9216 131.464 58.9216C131.152 58.9216 130.903 58.9216 130.704 58.9073C130.499 58.9073 130.349 58.9001 130.222 58.9001C130.172 58.9001 130.087 58.9001 129.987 58.9001C129.888 58.9001 129.781 58.9073 129.703 58.9073C129.653 58.9073 129.625 58.893 129.625 58.8644C129.625 58.8429 129.639 58.8215 129.689 58.8215C129.753 58.8215 129.795 58.8215 129.838 58.8072C129.923 58.7857 129.945 58.7142 129.959 58.5927C129.98 58.4211 129.98 58.1066 129.98 57.7348V57.0271V57.0557Z" fill="#78797F"/>
<path d="M133.63 57.763C133.63 58.2778 133.631 58.5351 133.723 58.6138C133.794 58.6781 133.95 58.6995 134.277 58.6995C134.497 58.6995 134.66 58.6995 134.76 58.5852C134.809 58.5351 134.852 58.4207 134.866 58.3421C134.866 58.3064 134.88 58.2778 134.916 58.2778C134.944 58.2778 134.951 58.3207 134.951 58.3707C134.951 58.4207 134.923 58.7138 134.887 58.8354C134.859 58.9283 134.838 58.9426 134.625 58.9426C134.326 58.9426 134.085 58.9426 133.879 58.9283C133.673 58.9283 133.496 58.9212 133.325 58.9212C133.275 58.9212 133.19 58.9212 133.091 58.9212C132.991 58.9212 132.885 58.9283 132.807 58.9283C132.757 58.9283 132.729 58.914 132.729 58.8854C132.729 58.864 132.743 58.8425 132.793 58.8425C132.856 58.8425 132.899 58.8425 132.942 58.8282C133.027 58.8068 133.048 58.7353 133.062 58.6138C133.084 58.4422 133.084 58.1276 133.084 57.7559V57.0482C133.084 56.4333 133.084 56.3261 133.084 56.1974C133.077 56.0616 133.034 56.0187 132.906 55.9758C132.871 55.9687 132.821 55.9615 132.771 55.9615C132.722 55.9615 132.7 55.9472 132.7 55.9186C132.7 55.89 132.729 55.8829 132.793 55.8829C132.984 55.8829 133.247 55.89 133.361 55.89C133.46 55.89 133.801 55.8829 133.957 55.8829C134.021 55.8829 134.049 55.89 134.049 55.9186C134.049 55.9472 134.028 55.9615 133.971 55.9615C133.922 55.9615 133.858 55.9615 133.808 55.9758C133.694 55.9973 133.659 56.0544 133.652 56.1974C133.645 56.3261 133.645 56.4405 133.645 57.0482V57.7559L133.63 57.763Z" fill="#78797F"/>
<path d="M138.026 57.0557C138.026 56.4409 138.026 56.3337 138.026 56.205C138.019 56.0691 137.977 56.0262 137.849 55.9834C137.813 55.9762 137.742 55.9691 137.685 55.9691C137.643 55.9691 137.614 55.9548 137.614 55.9262C137.614 55.8976 137.65 55.8904 137.707 55.8904C137.927 55.8904 138.19 55.8976 138.303 55.8976C138.438 55.8976 139.354 55.8976 139.432 55.8976C139.511 55.8976 139.574 55.8761 139.61 55.8761C139.631 55.8761 139.66 55.8547 139.674 55.8547C139.695 55.8547 139.702 55.8761 139.702 55.8904C139.702 55.919 139.681 55.9691 139.667 56.1478C139.667 56.1907 139.653 56.3623 139.645 56.4123C139.645 56.4337 139.631 56.4766 139.596 56.4766C139.567 56.4766 139.56 56.4552 139.56 56.4266C139.56 56.398 139.56 56.3265 139.532 56.2765C139.496 56.205 139.468 56.1478 139.262 56.1263C139.191 56.1192 138.694 56.1049 138.609 56.1049C138.587 56.1049 138.58 56.1192 138.58 56.1406V57.1343C138.58 57.1343 138.58 57.1772 138.609 57.1772C138.701 57.1772 139.241 57.1772 139.333 57.1701C139.432 57.1629 139.496 57.1486 139.532 57.1057C139.567 57.0771 139.582 57.0557 139.596 57.0557C139.61 57.0557 139.631 57.0771 139.631 57.0986C139.631 57.12 139.624 57.1915 139.596 57.3917C139.589 57.4703 139.574 57.6348 139.574 57.6634C139.574 57.6991 139.574 57.7563 139.532 57.7563C139.503 57.7563 139.496 57.742 139.496 57.7205C139.496 57.6776 139.496 57.6276 139.482 57.5704C139.461 57.4918 139.404 57.4274 139.248 57.4131C139.17 57.406 138.701 57.3917 138.594 57.3917C138.573 57.3917 138.573 57.4131 138.573 57.4346V57.7563C138.573 57.8921 138.573 58.2353 138.573 58.3568C138.58 58.6285 138.708 58.6928 139.134 58.6928C139.241 58.6928 139.418 58.6928 139.525 58.6428C139.631 58.5927 139.674 58.5069 139.702 58.3425C139.709 58.2996 139.724 58.2782 139.752 58.2782C139.788 58.2782 139.788 58.3282 139.788 58.3711C139.788 58.464 139.752 58.7357 139.731 58.8143C139.702 58.9216 139.667 58.9216 139.511 58.9216C139.198 58.9216 138.95 58.9216 138.751 58.9073C138.545 58.9073 138.396 58.9001 138.268 58.9001C138.218 58.9001 138.133 58.9001 138.033 58.9001C137.934 58.9001 137.827 58.9073 137.749 58.9073C137.7 58.9073 137.671 58.893 137.671 58.8644C137.671 58.8429 137.685 58.8215 137.735 58.8215C137.799 58.8215 137.842 58.8215 137.884 58.8072C137.97 58.7857 137.991 58.7142 138.005 58.5927C138.026 58.4211 138.026 58.1066 138.026 57.7348V57.0271V57.0557Z" fill="#78797F"/>
<path d="M140.987 58.8856C140.924 58.857 140.909 58.8356 140.909 58.7498C140.909 58.5353 140.931 58.2779 140.931 58.2136C140.931 58.1493 140.952 58.1064 140.98 58.1064C141.016 58.1064 141.023 58.1421 141.023 58.1707C141.023 58.2208 141.037 58.3065 141.059 58.378C141.151 58.6783 141.456 58.7784 141.719 58.7784C142.074 58.7784 142.294 58.5496 142.294 58.2636C142.294 58.0849 142.252 57.9134 141.882 57.6917L141.641 57.5488C141.151 57.2628 140.987 56.9911 140.987 56.6337C140.987 56.1404 141.456 55.8259 142.031 55.8259C142.301 55.8259 142.514 55.8616 142.621 55.8902C142.656 55.8974 142.678 55.9117 142.678 55.9403C142.678 55.9903 142.663 56.1047 142.663 56.4264C142.663 56.5122 142.642 56.5551 142.614 56.5551C142.585 56.5551 142.571 56.5336 142.571 56.4836C142.571 56.4478 142.55 56.3191 142.465 56.2191C142.401 56.1404 142.273 56.026 142.003 56.026C141.705 56.026 141.435 56.1833 141.435 56.455C141.435 56.6337 141.499 56.7767 141.875 56.984L142.046 57.0769C142.592 57.3772 142.763 57.6917 142.763 58.0563C142.763 58.3566 142.649 58.5997 142.351 58.807C142.152 58.9499 141.882 58.9714 141.655 58.9714C141.414 58.9714 141.158 58.9499 140.98 58.8642L140.987 58.8856Z" fill="#78797F"/>
<path d="M144.772 56.1333L144.155 56.1476C143.913 56.1476 143.814 56.1833 143.757 56.2691C143.714 56.3263 143.693 56.3763 143.686 56.4049C143.679 56.4407 143.665 56.455 143.636 56.455C143.608 56.455 143.601 56.4335 143.601 56.3906C143.601 56.3263 143.679 55.9331 143.693 55.9045C143.7 55.8545 143.714 55.8259 143.743 55.8259C143.778 55.8259 143.821 55.8616 143.92 55.8759C144.041 55.8902 144.197 55.8974 144.332 55.8974H146.015C146.15 55.8974 146.235 55.8902 146.299 55.8759C146.363 55.8688 146.399 55.8545 146.413 55.8545C146.441 55.8545 146.448 55.8759 146.448 55.9403C146.448 56.026 146.441 56.3263 146.441 56.4264C146.441 56.4693 146.427 56.4907 146.406 56.4907C146.37 56.4907 146.363 56.4693 146.356 56.4121V56.3692C146.342 56.262 146.235 56.1404 145.859 56.1333H145.333V57.7561C145.333 58.1278 145.333 58.4424 145.355 58.6211C145.369 58.7355 145.39 58.8141 145.518 58.8284C145.575 58.8356 145.667 58.8427 145.731 58.8427C145.781 58.8427 145.795 58.8642 145.795 58.8856C145.795 58.9142 145.76 58.9285 145.717 58.9285C145.447 58.9285 145.163 58.9142 145.049 58.9142C144.957 58.9142 144.673 58.9285 144.51 58.9285C144.46 58.9285 144.432 58.9142 144.432 58.8856C144.432 58.8642 144.446 58.8427 144.496 58.8427C144.559 58.8427 144.609 58.8427 144.645 58.8284C144.73 58.807 144.751 58.7355 144.765 58.6139C144.787 58.4424 144.787 58.1278 144.787 57.7561V56.1261L144.772 56.1333Z" fill="#78797F"/>
<path d="M147.571 57.9205C147.571 57.9205 147.542 57.9205 147.535 57.9491L147.315 58.4924C147.272 58.5925 147.251 58.6926 147.251 58.7355C147.251 58.8069 147.287 58.8498 147.414 58.8498H147.478C147.528 58.8498 147.542 58.8713 147.542 58.8927C147.542 58.9285 147.521 58.9356 147.478 58.9356C147.343 58.9356 147.152 58.9213 147.017 58.9213C146.974 58.9213 146.754 58.9356 146.534 58.9356C146.484 58.9356 146.456 58.9285 146.456 58.8927C146.456 58.8713 146.47 58.8498 146.505 58.8498C146.541 58.8498 146.591 58.8498 146.626 58.8498C146.818 58.8212 146.882 58.6997 146.967 58.4924L148.054 55.9545C148.103 55.8401 148.132 55.7901 148.174 55.7901C148.238 55.7901 148.252 55.8258 148.295 55.9188C148.394 56.1404 149.083 57.7918 149.353 58.3995C149.516 58.7641 149.63 58.8141 149.708 58.8284C149.772 58.8355 149.815 58.8427 149.864 58.8427C149.9 58.8427 149.921 58.857 149.921 58.8856C149.921 58.9213 149.9 58.9285 149.744 58.9285C149.595 58.9285 149.296 58.9285 148.948 58.9213C148.87 58.9213 148.828 58.9213 148.828 58.8856C148.828 58.8641 148.835 58.8498 148.877 58.8427C148.906 58.8427 148.934 58.7998 148.913 58.7498L148.593 57.9419C148.593 57.9419 148.572 57.9133 148.551 57.9133H147.578L147.571 57.9205ZM148.458 57.6989C148.458 57.6989 148.48 57.6917 148.48 57.6774L148.089 56.6551C148.089 56.6551 148.082 56.6194 148.068 56.6194C148.054 56.6194 148.046 56.6408 148.046 56.6551L147.649 57.6774C147.649 57.6774 147.649 57.706 147.663 57.706H148.465L148.458 57.6989Z" fill="#78797F"/>
<path d="M150.844 57.0557C150.844 56.4408 150.844 56.3336 150.844 56.2049C150.837 56.0691 150.795 56.0262 150.667 55.9833C150.631 55.9762 150.56 55.969 150.503 55.969C150.461 55.969 150.432 55.9547 150.432 55.9261C150.432 55.8975 150.468 55.8904 150.525 55.8904C150.738 55.8904 151.008 55.8975 151.121 55.8975C151.249 55.8975 151.547 55.8904 151.796 55.8904C152.314 55.8904 153.01 55.8904 153.465 56.3479C153.671 56.5552 153.855 56.8912 153.855 57.3702C153.855 57.8778 153.642 58.2638 153.401 58.4926C153.209 58.6856 152.776 58.9644 152.009 58.9644C151.86 58.9644 151.682 58.9501 151.512 58.943C151.348 58.9287 151.199 58.9215 151.093 58.9215C151.043 58.9215 150.958 58.9215 150.858 58.9215C150.759 58.9215 150.66 58.9287 150.574 58.9287C150.525 58.9287 150.496 58.9144 150.496 58.8858C150.496 58.8643 150.51 58.8429 150.56 58.8429C150.624 58.8429 150.667 58.8429 150.709 58.8286C150.795 58.8071 150.816 58.7356 150.83 58.6141C150.851 58.4425 150.851 58.128 150.851 57.7562V57.0485L150.844 57.0557ZM151.398 57.4989C151.398 57.9278 151.398 58.2352 151.405 58.3139C151.405 58.4139 151.419 58.5569 151.455 58.5998C151.505 58.6785 151.668 58.7642 151.995 58.7642C152.371 58.7642 152.648 58.6999 152.897 58.4926C153.166 58.271 153.252 57.9064 153.252 57.4917C153.252 56.977 153.046 56.6482 152.868 56.4837C152.485 56.1406 152.037 56.0977 151.711 56.0977C151.625 56.0977 151.491 56.1048 151.455 56.1263C151.419 56.1406 151.405 56.162 151.405 56.2049C151.405 56.3408 151.405 56.6768 151.405 56.9913V57.4989H151.398Z" fill="#78797F"/>
<path d="M154.771 57.4058C154.771 56.7195 155.254 55.8259 156.511 55.8259C157.555 55.8259 158.209 56.4121 158.209 57.3343C158.209 58.2565 157.541 58.9857 156.469 58.9857C155.261 58.9857 154.771 58.1207 154.771 57.4058ZM157.591 57.4844C157.591 56.5908 157.058 56.0403 156.391 56.0403C155.929 56.0403 155.389 56.2834 155.389 57.2842C155.389 58.1135 155.858 58.7712 156.639 58.7712C156.93 58.7712 157.591 58.6354 157.591 57.4844Z" fill="#78797F"/>
<path d="M161.049 58.9213C161.049 58.9213 160.985 58.8927 160.985 58.857C160.985 58.8212 161.035 58.7783 161.078 58.7354C161.738 58.1492 162.676 57.4129 162.676 56.412C162.676 55.6614 162.264 55.5113 162.029 55.5113C161.823 55.5113 161.674 55.547 161.532 55.6829C161.419 55.7901 161.333 56.0117 161.333 56.1404C161.333 56.1904 161.319 56.2333 161.27 56.2333C161.248 56.2333 161.234 56.1976 161.227 56.1404C161.227 56.0975 161.199 55.7043 161.199 55.5685C161.199 55.5256 161.199 55.5041 161.255 55.4755C161.44 55.3826 161.696 55.2968 162.108 55.2968C162.938 55.2968 163.286 55.7543 163.286 56.3048C163.286 57.227 162.271 58.0277 161.667 58.5138C161.646 58.5353 161.653 58.5496 161.674 58.5496H161.994C162.072 58.5496 162.633 58.5496 162.803 58.521C163.13 58.4852 163.286 58.3208 163.343 58.0992C163.357 58.042 163.372 58.0206 163.4 58.0206C163.436 58.0206 163.436 58.0634 163.436 58.1135C163.436 58.1921 163.343 58.6282 163.301 58.7926C163.265 58.9213 163.187 58.9356 162.889 58.9356H161.042L161.049 58.9213Z" fill="#78797F"/>
<path d="M165.474 59C164.543 59 164.295 57.9205 164.295 57.2485C164.295 56.1404 164.678 55.2825 165.552 55.2825C166.482 55.2825 166.731 56.2762 166.731 57.034C166.731 58.2064 166.283 59 165.474 59ZM165.452 55.497C165.097 55.497 164.842 55.9831 164.842 57.0698C164.842 57.8919 165.048 58.7926 165.559 58.7926C165.942 58.7926 166.177 58.1421 166.177 57.2199C166.177 56.3978 165.964 55.497 165.445 55.497H165.452Z" fill="#78797F"/>
<path d="M167.639 58.9214C167.639 58.9214 167.576 58.8928 167.576 58.8571C167.576 58.8214 167.625 58.7785 167.668 58.7356C168.328 58.1494 169.266 57.413 169.266 56.4122C169.266 55.6615 168.854 55.5114 168.619 55.5114C168.414 55.5114 168.264 55.5471 168.122 55.683C168.009 55.7902 167.924 56.0118 167.924 56.1405C167.924 56.1906 167.909 56.2334 167.86 56.2334C167.838 56.2334 167.824 56.1977 167.817 56.1405C167.817 56.0976 167.789 55.7044 167.789 55.5686C167.789 55.5257 167.789 55.5043 167.845 55.4757C168.03 55.3827 168.286 55.2969 168.698 55.2969C169.528 55.2969 169.876 55.7545 169.876 56.3049C169.876 57.2271 168.861 58.0278 168.257 58.5139C168.236 58.5354 168.243 58.5497 168.264 58.5497H168.584C168.662 58.5497 169.223 58.5497 169.394 58.5211C169.72 58.4854 169.876 58.3209 169.933 58.0993C169.947 58.0421 169.962 58.0207 169.99 58.0207C170.026 58.0207 170.026 58.0636 170.026 58.1136C170.026 58.1922 169.933 58.6283 169.891 58.7928C169.855 58.9214 169.777 58.9357 169.479 58.9357H167.632L167.639 58.9214Z" fill="#78797F"/>
<path d="M170.942 58.9213C170.942 58.9213 170.878 58.8927 170.878 58.857C170.878 58.8212 170.928 58.7783 170.97 58.7354C171.631 58.1492 172.568 57.4129 172.568 56.412C172.568 55.6614 172.156 55.5113 171.922 55.5113C171.716 55.5113 171.567 55.547 171.425 55.6829C171.311 55.7901 171.226 56.0117 171.226 56.1404C171.226 56.1904 171.212 56.2333 171.162 56.2333C171.141 56.2333 171.127 56.1976 171.119 56.1404C171.119 56.0975 171.091 55.7043 171.091 55.5685C171.091 55.5256 171.091 55.5041 171.148 55.4755C171.332 55.3826 171.588 55.2968 172 55.2968C172.831 55.2968 173.179 55.7543 173.179 56.3048C173.179 57.227 172.163 58.0277 171.56 58.5138C171.538 58.5353 171.546 58.5496 171.567 58.5496H171.886C171.965 58.5496 172.526 58.5496 172.696 58.521C173.023 58.4852 173.179 58.3208 173.236 58.0992C173.25 58.042 173.264 58.0206 173.293 58.0206C173.328 58.0206 173.328 58.0634 173.328 58.1135C173.328 58.1921 173.236 58.6282 173.193 58.7926C173.158 58.9213 173.079 58.9356 172.781 58.9356H170.935L170.942 58.9213Z" fill="#78797F"/>
<path d="M175.679 57.4271C175.764 57.4271 175.828 57.4342 175.828 57.4914C175.828 57.5557 175.75 57.57 175.615 57.5986C175.423 57.6272 174.564 57.7774 174.401 57.8274C174.308 57.8488 174.23 57.906 174.195 57.906C174.159 57.906 174.145 57.8703 174.159 57.8203L174.23 57.4914C174.244 57.4342 174.266 57.4271 174.344 57.4271H175.679Z" fill="#78797F"/>
<path d="M176.708 58.9213C176.708 58.9213 176.644 58.8927 176.644 58.857C176.644 58.8212 176.694 58.7783 176.737 58.7354C177.397 58.1492 178.335 57.4129 178.335 56.412C178.335 55.6614 177.923 55.5113 177.688 55.5113C177.482 55.5113 177.333 55.547 177.191 55.6829C177.078 55.7901 176.992 56.0117 176.992 56.1404C176.992 56.1904 176.978 56.2333 176.929 56.2333C176.907 56.2333 176.893 56.1976 176.886 56.1404C176.886 56.0975 176.858 55.7043 176.858 55.5685C176.858 55.5256 176.858 55.5041 176.914 55.4755C177.099 55.3826 177.355 55.2968 177.767 55.2968C178.597 55.2968 178.945 55.7543 178.945 56.3048C178.945 57.227 177.93 58.0277 177.326 58.5138C177.305 58.5353 177.312 58.5496 177.333 58.5496H177.653C177.731 58.5496 178.292 58.5496 178.462 58.521C178.789 58.4852 178.945 58.3208 179.002 58.0992C179.016 58.042 179.031 58.0206 179.059 58.0206C179.095 58.0206 179.095 58.0634 179.095 58.1135C179.095 58.1921 179.002 58.6282 178.96 58.7926C178.924 58.9213 178.846 58.9356 178.548 58.9356H176.701L176.708 58.9213Z" fill="#78797F"/>
<path d="M181.133 59C180.202 59 179.954 57.9205 179.954 57.2485C179.954 56.1404 180.337 55.2825 181.211 55.2825C182.141 55.2825 182.39 56.2762 182.39 57.034C182.39 58.2064 181.942 59 181.133 59ZM181.111 55.497C180.756 55.497 180.501 55.9831 180.501 57.0698C180.501 57.8919 180.707 58.7926 181.218 58.7926C181.601 58.7926 181.836 58.1421 181.836 57.2199C181.836 56.3978 181.623 55.497 181.104 55.497H181.111Z" fill="#78797F"/>
<path d="M183.306 58.9214C183.306 58.9214 183.242 58.8928 183.242 58.8571C183.242 58.8214 183.292 58.7785 183.334 58.7356C183.995 58.1494 184.932 57.413 184.932 56.4122C184.932 55.6615 184.52 55.5114 184.286 55.5114C184.08 55.5114 183.931 55.5471 183.789 55.683C183.675 55.7902 183.59 56.0118 183.59 56.1405C183.59 56.1906 183.576 56.2334 183.526 56.2334C183.505 56.2334 183.491 56.1977 183.484 56.1405C183.484 56.0976 183.455 55.7044 183.455 55.5686C183.455 55.5257 183.455 55.5043 183.512 55.4757C183.697 55.3827 183.952 55.2969 184.364 55.2969C185.195 55.2969 185.543 55.7545 185.543 56.3049C185.543 57.2271 184.527 58.0278 183.924 58.5139C183.903 58.5354 183.91 58.5497 183.931 58.5497H184.25C184.329 58.5497 184.89 58.5497 185.06 58.5211C185.387 58.4854 185.543 58.3209 185.6 58.0993C185.614 58.0421 185.628 58.0207 185.657 58.0207C185.692 58.0207 185.692 58.0636 185.692 58.1136C185.692 58.1922 185.6 58.6283 185.557 58.7928C185.522 58.9214 185.444 58.9357 185.145 58.9357H183.299L183.306 58.9214Z" fill="#78797F"/>
<path d="M188.937 55.3683C189.03 55.3683 189.051 55.3826 189.051 55.4041C189.051 55.4327 189.03 55.4684 189.015 55.4899C188.625 56.0475 187.893 57.9348 187.822 58.5353C187.815 58.6139 187.822 58.6497 187.822 58.714C187.822 58.807 187.439 59 187.226 59C187.176 59 187.162 58.9857 187.162 58.9428C187.162 58.8928 187.169 58.8213 187.197 58.7498C187.332 58.2922 187.929 56.8982 188.582 55.7973H187.361C187.226 55.7973 187.034 55.8044 186.92 55.8831C186.835 55.9403 186.771 56.0904 186.764 56.169C186.764 56.2048 186.743 56.2334 186.715 56.2334C186.679 56.2334 186.679 56.2119 186.679 56.1619C186.679 55.9831 186.75 55.4327 186.75 55.3826C186.75 55.3326 186.771 55.3183 186.8 55.3183C186.828 55.3183 186.935 55.3683 187.439 55.3683H188.944H188.937Z" fill="#78797F"/>
<path d="M75.5747 32.4991C75.5747 30.3473 77.2223 28.9532 79.1539 28.9532C80.1055 28.9532 81.256 29.3035 81.959 30.5046L80.8583 31.2695C80.4606 30.6904 79.8854 30.4045 79.1681 30.4045C78.039 30.4045 77.1442 31.1837 77.1442 32.492C77.1442 33.8002 78.0106 34.6295 79.1681 34.6295C79.8783 34.6295 80.5458 34.3221 80.766 33.4285H79.2391V32.156H82.236C82.5911 34.6009 81.0145 36.0378 79.1042 36.0378C77.1939 36.0378 75.5676 34.6509 75.5676 32.492L75.5747 32.4991Z" fill="#78797F"/>
<path d="M82.8538 33.4285C82.8538 31.7199 84.1179 30.7977 85.4104 30.7977C86.7029 30.7977 88.18 31.6913 87.8604 34.0004H84.2954C84.5014 34.5437 84.9985 34.8154 85.666 34.8154C86.1063 34.8154 86.504 34.7081 86.8733 34.4293L87.548 35.1371C87.1361 35.6589 86.4188 36.0378 85.5027 36.0378C84.1108 36.0378 82.8609 35.087 82.8609 33.4285H82.8538ZM86.5466 32.9209C86.4401 32.3418 85.9288 32.0559 85.4246 32.0559C84.9204 32.0559 84.4233 32.3204 84.2599 32.9209H86.5466Z" fill="#78797F"/>
<path d="M88.5779 30.898H90.0692V31.5414C90.3462 31.1125 90.8433 30.8051 91.5534 30.8051C92.569 30.8051 93.4212 31.4342 93.4212 32.9783V35.9451H91.9298V33.2357C91.9298 32.6066 91.6103 32.1419 90.9924 32.1419C90.3746 32.1419 90.0692 32.6066 90.0692 33.2357V35.9451H88.5779V30.898Z" fill="#78797F"/>
<path d="M94.6921 34.3936V32.0916H93.9465V30.8978H94.6921V29.6038H96.1835V30.8978H97.2345V32.0916H96.1835V34.1505C96.1835 34.4007 96.3255 34.6724 96.78 34.6724C96.8936 34.6724 97.0712 34.651 97.2558 34.5938V35.7376C97.0641 35.9306 96.638 36.0021 96.29 36.0021C95.3668 36.0021 94.6921 35.5446 94.6921 34.3936Z" fill="#78797F"/>
<path d="M97.6606 33.4285C97.6606 31.7199 98.9247 30.7977 100.217 30.7977C101.51 30.7977 102.987 31.6913 102.667 34.0004H99.1023C99.3082 34.5437 99.8053 34.8154 100.473 34.8154C100.913 34.8154 101.311 34.7081 101.68 34.4293L102.355 35.1371C101.943 35.6589 101.226 36.0378 100.31 36.0378C98.9176 36.0378 97.6677 35.087 97.6677 33.4285H97.6606ZM101.353 32.9209C101.247 32.3418 100.736 32.0559 100.231 32.0559C99.7272 32.0559 99.2301 32.3204 99.0668 32.9209H101.353Z" fill="#78797F"/>
<path d="M108.994 35.9451V35.3732H108.966C108.888 35.559 108.37 36.0452 107.482 36.0452C106.346 36.0452 105.089 35.1801 105.089 33.4215C105.089 31.6629 106.339 30.7979 107.482 30.7979C108.37 30.7979 108.888 31.284 108.966 31.4699H108.994V29.0535H110.486V35.9451H108.994ZM107.787 34.7012C108.441 34.7012 109.03 34.2436 109.03 33.4215C109.03 32.5994 108.441 32.1419 107.787 32.1419C107.134 32.1419 106.566 32.6065 106.566 33.4215C106.566 34.2365 107.155 34.7012 107.787 34.7012Z" fill="#78797F"/>
<path d="M111.154 33.4283C111.154 31.7198 112.418 30.7975 113.71 30.7975C115.003 30.7975 116.48 31.6912 116.16 34.0003H112.595C112.801 34.5436 113.299 34.8152 113.966 34.8152C114.406 34.8152 114.804 34.708 115.173 34.4292L115.848 35.1369C115.436 35.6588 114.719 36.0377 113.803 36.0377C112.411 36.0377 111.161 35.0869 111.161 33.4283H111.154ZM114.847 32.9208C114.74 32.3417 114.229 32.0558 113.725 32.0558C113.22 32.0558 112.723 32.3203 112.56 32.9208H114.847Z" fill="#78797F"/>
<path d="M119.328 34.3936V32.0916H118.582V30.8978H119.328V29.6038H120.819V30.8978H121.87V32.0916H120.819V34.1505C120.819 34.4007 120.961 34.6724 121.415 34.6724C121.529 34.6724 121.707 34.651 121.891 34.5938V35.7376C121.699 35.9306 121.273 36.0021 120.925 36.0021C120.002 36.0021 119.328 35.5446 119.328 34.3936Z" fill="#78797F"/>
<path d="M122.587 30.8978H124.078V32.2632C124.242 31.4482 124.725 30.7977 125.634 30.7977C125.747 30.7977 125.868 30.8048 125.989 30.8477V32.2775C125.875 32.256 125.769 32.2489 125.641 32.2489C124.647 32.2489 124.078 32.9209 124.078 33.8717V35.952H122.587V30.9049V30.8978Z" fill="#78797F"/>
<path d="M126.273 33.4212C126.273 31.6626 127.523 30.7975 128.666 30.7975C129.554 30.7975 130.072 31.2837 130.15 31.4695H130.179V30.8976H131.67V35.9448H130.179V35.3729H130.15C130.072 35.5587 129.554 36.0448 128.666 36.0448C127.53 36.0448 126.273 35.1798 126.273 33.4212ZM128.971 34.7009C129.625 34.7009 130.214 34.2433 130.214 33.4212C130.214 32.5991 129.625 32.1415 128.971 32.1415C128.318 32.1415 127.75 32.6062 127.75 33.4212C127.75 34.2362 128.339 34.7009 128.971 34.7009Z" fill="#78797F"/>
<path d="M134.078 29.0535V31.4699H134.106C134.184 31.284 134.703 30.7979 135.59 30.7979C136.727 30.7979 137.984 31.6629 137.984 33.4215C137.984 35.1801 136.734 36.0452 135.59 36.0452C134.703 36.0452 134.184 35.559 134.106 35.3732H134.078V35.9451H132.586V29.0535H134.078ZM135.285 34.7012C135.924 34.7012 136.506 34.2365 136.506 33.4215C136.506 32.6065 135.917 32.1419 135.285 32.1419C134.653 32.1419 134.042 32.5994 134.042 33.4215C134.042 34.2436 134.632 34.7012 135.285 34.7012Z" fill="#78797F"/>
<path d="M138.409 33.4213C138.409 31.6627 139.659 30.7977 140.803 30.7977C141.69 30.7977 142.209 31.2838 142.287 31.4697H142.315V30.8978H143.807V35.9449H142.315V35.373H142.287C142.209 35.5588 141.69 36.045 140.803 36.045C139.666 36.045 138.409 35.18 138.409 33.4213ZM141.108 34.701C141.761 34.701 142.351 34.2434 142.351 33.4213C142.351 32.5992 141.761 32.1417 141.108 32.1417C140.455 32.1417 139.887 32.6063 139.887 33.4213C139.887 34.2363 140.476 34.701 141.108 34.701Z" fill="#78797F"/>
<path d="M143.395 36.4312H143.7C144.382 36.4312 144.744 36.2596 144.744 35.3732V30.8979H146.235V35.5304C146.235 37.1318 145.504 37.8181 143.778 37.8181H143.395V36.4312ZM144.744 29.0535H146.235V30.3618H144.744V29.0535Z" fill="#78797F"/>
<path d="M146.903 33.4212C146.903 31.7055 148.252 30.7975 149.566 30.7975C150.88 30.7975 152.229 31.6983 152.229 33.4212C152.229 35.1441 150.88 36.0448 149.566 36.0448C148.252 36.0448 146.903 35.1441 146.903 33.4212ZM149.566 34.6866C150.212 34.6866 150.752 34.2004 150.752 33.4212C150.752 32.642 150.212 32.163 149.566 32.163C148.919 32.163 148.38 32.6491 148.38 33.4212C148.38 34.1933 148.919 34.6866 149.566 34.6866Z" fill="#78797F"/>
<path d="M156.589 35.8877L154.509 30.8978H156.036L157.307 34.1791L158.578 30.8978H160.105L158.003 35.9449L157.229 37.7893H155.766L156.597 35.8877H156.589Z" fill="#78797F"/>
<path d="M162.328 34.6083L163.514 34.2866C163.592 34.5296 163.762 34.8656 164.238 34.8656C164.508 34.8656 164.756 34.7298 164.756 34.451C164.756 34.2866 164.657 34.1293 164.33 34.0221L163.656 33.7719C162.825 33.4716 162.47 32.9283 162.47 32.2992C162.47 31.3555 163.308 30.8051 164.295 30.8051C165.282 30.8051 165.921 31.3412 166.099 32.1562L164.934 32.4493C164.806 32.0633 164.558 31.9703 164.359 31.9703C164.068 31.9703 163.925 32.1419 163.925 32.3206C163.925 32.485 164.025 32.6423 164.359 32.7496L164.984 32.9855C165.523 33.1713 166.241 33.5502 166.241 34.4581C166.241 35.4804 165.381 36.0524 164.266 36.0524C163.251 36.0524 162.491 35.5734 162.335 34.6154L162.328 34.6083Z" fill="#78797F"/>
<path d="M166.659 33.4212C166.659 31.7055 168.009 30.7975 169.322 30.7975C170.636 30.7975 171.985 31.6983 171.985 33.4212C171.985 35.1441 170.636 36.0448 169.322 36.0448C168.009 36.0448 166.659 35.1441 166.659 33.4212ZM169.322 34.6866C169.969 34.6866 170.508 34.2004 170.508 33.4212C170.508 32.642 169.969 32.163 169.322 32.163C168.676 32.163 168.136 32.6491 168.136 33.4212C168.136 34.1933 168.676 34.6866 169.322 34.6866Z" fill="#78797F"/>
<path d="M172.646 29.0535H174.137V35.9451H172.646V29.0535Z" fill="#78797F"/>
<path d="M179.897 35.9449H178.405V35.3015C178.129 35.7304 177.631 36.0378 176.921 36.0378C175.906 36.0378 175.054 35.4087 175.054 33.8646V30.8978H176.545V33.6072C176.545 34.2363 176.864 34.701 177.482 34.701C178.1 34.701 178.405 34.2363 178.405 33.6072V30.8978H179.897V35.9449Z" fill="#78797F"/>
<path d="M180.571 33.407C180.571 31.6984 181.899 30.7977 183.242 30.7977C184.129 30.7977 184.911 31.2052 185.401 32.0416L184.321 32.7493C184.08 32.4205 183.725 32.156 183.242 32.156C182.595 32.156 182.049 32.6421 182.049 33.407C182.049 34.172 182.595 34.6795 183.242 34.6795C183.725 34.6795 184.08 34.415 184.321 34.0862L185.401 34.7939C184.911 35.6089 184.129 36.0378 183.242 36.0378C181.899 36.0378 180.571 35.1371 180.571 33.407Z" fill="#78797F"/>
<path d="M186.068 29.0535H187.559V30.3618H186.068V29.0535ZM186.068 30.8979H187.559V35.9451H186.068V30.8979Z" fill="#78797F"/>
<path d="M188.227 33.4212C188.227 31.7055 189.576 30.7975 190.89 30.7975C192.204 30.7975 193.553 31.6983 193.553 33.4212C193.553 35.1441 192.204 36.0448 190.89 36.0448C189.576 36.0448 188.227 35.1441 188.227 33.4212ZM190.89 34.6866C191.536 34.6866 192.076 34.2004 192.076 33.4212C192.076 32.642 191.536 32.163 190.89 32.163C190.244 32.163 189.704 32.6491 189.704 33.4212C189.704 34.1933 190.244 34.6866 190.89 34.6866Z" fill="#78797F"/>
<path d="M194.214 30.898H195.705V31.5414C195.982 31.1125 196.479 30.8051 197.189 30.8051C198.205 30.8051 199.057 31.4342 199.057 32.9783V35.9451H197.566V33.2357C197.566 32.6066 197.246 32.1419 196.628 32.1419C196.01 32.1419 195.705 32.6066 195.705 33.2357V35.9451H194.214V30.898Z" fill="#78797F"/>
<path d="M199.732 33.4283C199.732 31.7198 200.996 30.7975 202.288 30.7975C203.581 30.7975 205.058 31.6912 204.738 34.0003H201.173C201.379 34.5436 201.876 34.8152 202.544 34.8152C202.984 34.8152 203.382 34.708 203.751 34.4292L204.426 35.1369C204.014 35.6588 203.297 36.0377 202.381 36.0377C200.989 36.0377 199.739 35.0869 199.739 33.4283H199.732ZM203.425 32.9208C203.318 32.3417 202.807 32.0558 202.302 32.0558C201.798 32.0558 201.301 32.3203 201.138 32.9208H203.425Z" fill="#78797F"/>
<path d="M205.022 34.6083L206.208 34.2866C206.286 34.5296 206.456 34.8656 206.932 34.8656C207.202 34.8656 207.451 34.7298 207.451 34.451C207.451 34.2866 207.351 34.1293 207.025 34.0221L206.35 33.7719C205.519 33.4716 205.164 32.9283 205.164 32.2992C205.164 31.3555 206.002 30.8051 206.989 30.8051C207.976 30.8051 208.615 31.3412 208.793 32.1562L207.628 32.4493C207.5 32.0633 207.252 31.9703 207.053 31.9703C206.762 31.9703 206.62 32.1419 206.62 32.3206C206.62 32.485 206.719 32.6423 207.053 32.7496L207.678 32.9855C208.218 33.1713 208.935 33.5502 208.935 34.4581C208.935 35.4804 208.076 36.0524 206.961 36.0524C205.945 36.0524 205.185 35.5734 205.029 34.6154L205.022 34.6083Z" fill="#78797F"/>
<path d="M74.6093 6.11261L81.0717 23.3272H76.4912L75.6461 20.8751H69.0417L68.1966 23.3272H63.5876L70.0501 6.11261H74.6093ZM74.2755 16.979L72.3226 11.3528L70.391 16.979H74.2755Z" fill="#78797F"/>
<path d="M81.8171 27.6454V24.3211C82.4207 24.7072 83.6706 24.9074 84.6648 24.9074C87.0012 24.9074 88.0878 23.7635 88.0878 22.5554V22.1407H87.9457C87.8463 22.3623 86.7172 23.5705 84.5938 23.5705C81.7745 23.5705 78.6143 21.4115 78.6143 17.0221C78.6143 12.6327 81.7745 10.4737 84.5938 10.4737C86.7172 10.4737 87.8463 11.689 87.9457 11.9035H88.0878V10.7168H92.2564V22.1908C92.2564 27.3094 88.2298 28.3746 85.4602 28.3746C84.1819 28.3746 82.6622 28.203 81.8171 27.6454ZM85.4602 19.8602C86.9515 19.8602 88.1872 18.8165 88.1872 17.0221C88.1872 15.2277 86.9586 14.184 85.4602 14.184C83.9617 14.184 82.7119 15.2492 82.7119 17.0221C82.7119 18.795 83.9901 19.8602 85.4602 19.8602Z" fill="#78797F"/>
<path d="M104.947 23.3269H100.779V21.8471C100.054 22.8623 98.8753 23.57 97.2135 23.57C94.6783 23.57 92.562 21.9972 92.562 18.1368L92.5833 10.7162H96.7519L96.7306 17.4076C96.7306 18.7159 97.3556 19.8597 98.783 19.8597C100.21 19.8597 100.786 18.723 100.786 17.4076L100.807 10.7162H104.976L104.954 23.3269H104.947Z" fill="#78797F"/>
<path d="M104.677 17.0221C104.677 12.6112 107.809 10.4737 110.607 10.4737C112.801 10.4737 113.98 11.689 114.08 11.9035H114.151V10.7168H118.319V23.3274H114.151V22.1407H114.08C113.98 22.3623 112.801 23.5705 110.607 23.5705C107.809 23.5705 104.677 21.4401 104.677 17.0221ZM111.502 19.8602C112.993 19.8602 114.25 18.8165 114.25 17.0221C114.25 15.2277 112.993 14.184 111.502 14.184C110.01 14.184 108.775 15.2492 108.775 17.0221C108.775 18.795 110.053 19.8602 111.502 19.8602Z" fill="#78797F"/>
<path d="M117.915 19.9315L121.196 19.0378C121.366 19.4739 121.657 20.3246 122.765 20.3246C123.347 20.3246 123.823 20.0601 123.823 19.524C123.823 19.2595 123.681 18.9163 123.028 18.7233L121.196 18.0441C119.122 17.315 118.227 15.9352 118.227 14.3124C118.227 11.8889 120.422 10.4806 122.95 10.4806C125.478 10.4806 127.196 11.8889 127.601 13.9979L124.349 14.7985C124.086 13.8263 123.482 13.6833 123.12 13.6833C122.467 13.6833 122.254 14.1194 122.254 14.3839C122.254 14.677 122.424 15.013 123.149 15.206L124.86 15.8351C126.067 16.2212 127.921 17.172 127.921 19.524C127.921 22.069 125.748 23.5703 122.836 23.5703C120.258 23.5703 118.305 22.405 117.915 19.9315Z" fill="#78797F"/>
<path d="M127.033 17.0004C127.033 12.7325 130.385 10.4806 133.759 10.4806C135.974 10.4806 137.906 11.5029 139.184 13.5832L136.173 15.5706C135.619 14.87 134.845 14.2338 133.766 14.2338C132.317 14.2338 131.138 15.349 131.138 17.0004C131.138 18.6518 132.317 19.8099 133.766 19.8099C134.852 19.8099 135.619 19.1808 136.173 18.4731L139.184 20.4605C137.906 22.4979 135.974 23.5631 133.759 23.5631C130.385 23.5631 127.033 21.304 127.033 16.9933" fill="#78797F"/>
<path d="M137.906 17.0221C137.906 12.6112 141.038 10.4737 143.836 10.4737C146.03 10.4737 147.209 11.689 147.308 11.9035H147.379V10.7168H151.548V23.3274H147.379V22.1407H147.308C147.209 22.3623 146.03 23.5705 143.836 23.5705C141.038 23.5705 137.906 21.4401 137.906 17.0221ZM144.73 19.8602C146.222 19.8602 147.479 18.8165 147.479 17.0221C147.479 15.2277 146.222 14.184 144.73 14.184C143.239 14.184 142.003 15.2492 142.003 17.0221C142.003 18.795 143.282 19.8602 144.73 19.8602Z" fill="#78797F"/>
<path d="M156.036 6.11261H151.867V23.3272H156.036V6.11261Z" fill="#78797F"/>
<path d="M160.517 10.7162H156.348V23.3269H160.517V10.7162Z" fill="#78797F"/>
<path d="M160.233 17.0504C160.233 12.7825 163.414 10.4806 166.667 10.4806C169.919 10.4806 173.683 12.6896 172.817 18.6518H164.309C164.813 19.6669 165.9 20.1817 167.349 20.1817C168.364 20.1817 169.28 19.9886 170.196 19.3595L172.029 21.3255C171.013 22.6123 169.259 23.5846 166.894 23.5846C163.372 23.5846 160.24 21.2111 160.24 17.0647M169.16 15.7064C168.868 14.5197 167.782 13.9836 166.724 13.9836C165.666 13.9836 164.6 14.5197 164.167 15.7064H169.16Z" fill="#78797F"/>
<path d="M172.646 10.7168H176.815V12.1966C177.539 11.1814 178.718 10.4737 180.38 10.4737C182.915 10.4737 185.031 12.0465 185.031 15.9069V23.3274H180.863V16.6361C180.863 15.3278 180.238 14.184 178.81 14.184C177.383 14.184 176.808 15.3207 176.808 16.6361V23.3274H172.639V10.7168H172.646Z" fill="#78797F"/>
<path d="M186.296 19.1094V14.0193H184.392V10.7237H186.296V7.49951H190.464V10.7237H193.113V14.0193H190.464V18.4802C190.464 19.0593 190.805 19.7885 191.984 19.7885C192.275 19.7885 192.73 19.7385 193.163 19.5955V22.7696C192.68 23.3058 191.551 23.4702 190.606 23.4702C188.099 23.4702 186.289 22.2549 186.289 19.1022" fill="#78797F"/>
<path d="M192.233 17.0504C192.233 12.7825 195.414 10.4806 198.667 10.4806C201.919 10.4806 205.683 12.6896 204.817 18.6518H196.309C196.813 19.6669 197.9 20.1817 199.348 20.1817C200.364 20.1817 201.28 19.9886 202.196 19.3595L204.028 21.3255C203.013 22.6123 201.259 23.5846 198.894 23.5846C195.372 23.5846 192.24 21.2111 192.24 17.0647M201.159 15.7064C200.868 14.5197 199.782 13.9836 198.723 13.9836C197.665 13.9836 196.6 14.5197 196.167 15.7064H201.159Z" fill="#78797F"/>
<path d="M203.56 19.9315L206.841 19.0378C207.011 19.4739 207.295 20.3246 208.41 20.3246C208.992 20.3246 209.468 20.0601 209.468 19.524C209.468 19.2595 209.326 18.9163 208.673 18.7233L206.841 18.0441C204.767 17.315 203.872 15.9352 203.872 14.3124C203.872 11.8889 206.066 10.4806 208.595 10.4806C211.123 10.4806 212.841 11.8889 213.246 13.9979L209.994 14.7985C209.731 13.8263 209.127 13.6833 208.765 13.6833C208.112 13.6833 207.899 14.1194 207.899 14.3839C207.899 14.677 208.069 15.013 208.793 15.206L210.505 15.8351C211.712 16.2212 213.566 17.172 213.566 19.524C213.566 22.069 211.393 23.5703 208.481 23.5703C205.903 23.5703 203.95 22.405 203.56 19.9315Z" fill="#78797F"/>
<path d="M156.192 7.79975C156.192 6.36996 157.279 5.44775 158.529 5.44775C159.778 5.44775 160.865 6.36996 160.865 7.79975C160.865 9.22953 159.757 10.1517 158.529 10.1517C157.3 10.1517 156.192 9.22953 156.192 7.79975Z" fill="#78797F"/>
<path d="M38.3627 14.6055L39.3996 17.6795L47.8504 9.17233L52.9636 14.3196V10.2089L47.8504 5.06171L38.3627 14.6055Z" fill="#78797F"/>
<path d="M52.9637 41.7279V35.4369L49.8391 38.5824L52.9637 41.7279Z" fill="#78797F"/>
<path d="M0 41.7279V35.4369L3.12469 38.5824L0 41.7279Z" fill="#78797F"/>
<path d="M31.3248 31.9341L30.7851 30.2041L29.0665 31.9341H31.3248Z" fill="#78797F"/>
<path d="M40.3654 20.5605L40.614 21.2897L41.4164 23.6131L47.9712 17.0146L52.9636 22.0403V17.9297L47.9712 12.904L40.3654 20.5605Z" fill="#78797F"/>
<path d="M20.1045 40.9561H18.8759L18.3504 42.729L17.7681 44.6736L16.8875 47.6046H13.5L8.24487 52.8948L11.5045 52.8734H12.3496L24.1879 40.9561H20.1045Z" fill="#78797F"/>
<path d="M43.2626 6.32659L41.2245 4.2677L36.4877 9.03603L37.5175 12.1101L43.2626 6.32659Z" fill="#78797F"/>
<path d="M28.0793 21.6109L27.0922 18.494L25.3665 20.2311L23.5627 26.1576L28.0793 21.6109Z" fill="#78797F"/>
<path d="M48.5889 44.3878L52.9634 48.7915V44.6809L46.4158 38.0896L48.5889 44.3878Z" fill="#78797F"/>
<path d="M42.2473 26.0292L43.3054 29.0818L47.8646 24.485L52.4025 29.0603L46.2952 35.2012L48.3404 37.253L52.9635 32.599V25.5145L47.8646 20.3815L42.2473 26.0292Z" fill="#78797F"/>
<path d="M27.7174 40.9561L15.8578 52.8948L18.3788 52.8734H19.9625L31.8008 40.9561H27.7174Z" fill="#78797F"/>
<path d="M48.4111 47.4116H48.3685L44.3064 47.3901L44.3277 47.4116H42.0552L36.6296 52.8734H38.1707H40.713L45.2296 48.3195L49.7533 52.8734H52.9633V51.994L48.4111 47.4116Z" fill="#78797F"/>
<path d="M35.16 44.3878L34.2012 41.2994L22.6825 52.895L26.2191 52.8735H26.7872L34.6913 44.9168L35.16 44.3878Z" fill="#78797F"/>
<path d="M36.1046 47.4117L35.7992 46.4395L29.3865 52.8949L32.0496 52.8735H33.4983L38.9168 47.4117H36.1046Z" fill="#78797F"/>
<path d="M23.6056 0.22876L18.1232 5.51181H20.5023H22.4552L27.689 0.243058L23.6056 0.22876Z" fill="#78797F"/>
<path d="M32.2979 0.22876H30.4373L25.1964 5.51181H28.4276H29.2798L34.5065 0.22876H32.2979Z" fill="#78797F"/>
<path d="M38.5684 0.22876L37.1481 0.235909L31.9072 5.51181H35.3017L35.4793 6.02653L41.2173 0.22876H38.5684Z" fill="#78797F"/>
<path d="M52.9637 7.08475V5.43335L52.14 6.25547L52.9637 7.08475Z" fill="#78797F"/>
<path d="M45.0168 4.41801L47.8859 1.52985L50.8472 4.51809L52.8925 2.46635L50.6839 0.243042H45.0808L42.9787 2.35912L45.0168 4.41801Z" fill="#78797F"/>
<path d="M49.6753 28.9532L47.6371 26.9015L43.8591 30.6976L44.9101 33.7501L49.6753 28.9532Z" fill="#78797F"/>
<path d="M14.6859 14.6055L13.6562 17.6795L5.2053 9.17233L0.0921631 14.3196V10.2089L5.2053 5.06171L14.6859 14.6055Z" fill="#78797F"/>
<path d="M19.8633 0.22876H15.858L11.8456 4.28934L11.8243 4.2679L9.78613 6.32678L15.5313 12.1103L16.561 9.03622L13.9192 6.36968L19.8633 0.22876Z" fill="#78797F"/>
<path d="M12.6833 20.5605L12.4347 21.2897L11.6322 23.6131L5.07747 17.0146L0.0921631 22.0403V17.9297L5.07747 12.904L12.6833 20.5605Z" fill="#78797F"/>
<path d="M4.46673 44.3878L0.0921631 48.7915V44.6809L6.63981 38.0896L4.46673 44.3878Z" fill="#78797F"/>
<path d="M10.8013 26.0292L9.7503 29.0818L5.18399 24.485L0.646086 29.0603L6.75344 35.2012L4.71529 37.253L0.0921631 32.599V25.5145L5.18399 20.3815L10.8013 26.0292Z" fill="#78797F"/>
<path d="M5.6669 47.4116H5.70951L9.77161 47.3901L4.3247 52.8734H1.11479H0.0921631L5.6669 47.4116Z" fill="#78797F"/>
<path d="M0.0921631 7.08475V5.43335L0.908844 6.25547L0.0921631 7.08475Z" fill="#78797F"/>
<path d="M8.03163 4.41813L5.16969 1.52997L2.20124 4.51822L0.163086 2.46648L2.36457 0.243164H7.96771L10.0698 2.35924L8.03163 4.41813Z" fill="#78797F"/>
<path d="M3.37341 28.9532L5.41867 26.9015L9.1896 30.6976L8.13857 33.7501L3.37341 28.9532Z" fill="#78797F"/>
<path d="M29.3154 25.5429L28.8751 24.156L24.1668 28.9029L22.924 30.1468L22.0718 31.069L21.8091 31.934H25.1184H25.232L29.8623 27.2729L29.3154 25.5429Z" fill="#78797F"/>
<path d="M48.3688 47.4109H48.4108L48.3898 47.3901L48.3688 47.4109Z" fill="#78797F"/>
<path d="M43.696 52.8946H47.0905L45.3151 50.993L43.696 52.8946Z" fill="#78797F"/>
<path d="M92.8032 48.9699C92.8032 48.7626 92.8316 48.6124 93.0091 48.305C95.6722 43.4581 96.986 40.3125 97.0286 39.2474C97.0286 39.1258 97.0854 39.04 97.3837 38.9971C98.0939 38.8613 100.92 38.8184 101.552 38.8184C101.993 38.8184 102.333 39.4547 102.333 40.0051C102.333 40.2982 102.227 40.5842 101.993 40.72C101.581 40.72 100.814 40.6771 100.459 40.6771C99.855 40.6771 99.4005 40.72 99.2372 40.9559C98.946 41.3706 97.4689 43.6368 97.4689 43.8298C97.4689 43.9942 97.5896 44.0657 97.7317 44.0657C98.0299 44.0657 98.7614 44.0657 98.8679 44.08C99.1165 44.1086 99.3508 44.5662 99.3508 44.9665C99.3508 45.281 99.2017 45.5741 98.8182 45.617C97.2701 45.7958 96.2403 46.1246 96.2403 46.1246C96.0344 46.3319 95.239 47.7403 95.239 48.0691C95.239 48.2049 95.3598 48.2478 95.6083 48.2478C96.1835 48.2478 96.7588 48.112 97.4476 48.112C98.0654 48.112 98.6265 48.6339 98.6265 49.4489C98.6265 49.6705 98.5555 49.8206 98.3779 49.8206C97.4334 49.8206 95.7432 50.1352 94.891 50.4997C94.7561 50.5569 94.6567 50.5569 94.3868 50.5569C93.8258 50.5569 92.7961 49.3845 92.7961 48.9699H92.8032Z" fill="#78797F"/>
<path d="M99.294 48.5409C99.294 46.8395 102.887 40.9631 103.42 39.5691C103.555 39.2259 103.875 39.1544 104.13 39.1544C104.57 39.1544 105.295 39.7049 105.295 40.2053C105.295 40.3411 105.252 40.4698 105.188 40.5628C103.761 42.7432 101.595 46.2247 100.679 48.4623C100.65 48.5481 100.622 48.6696 100.622 48.7769C100.622 48.9127 100.665 49.0128 100.757 49.0128C100.785 49.0128 100.814 48.9985 100.863 48.9699C101.027 48.8483 101.716 48.2693 102.412 47.3828C102.838 46.8967 104.279 45.1023 104.549 44.7306C104.592 44.6734 104.62 44.6448 104.67 44.6448C104.805 44.6448 104.89 44.9236 104.89 44.9236C104.492 45.5598 103.612 46.8038 102.781 47.9476C102.312 48.5981 101.488 49.6705 100.927 50.1423C100.792 50.2638 100.636 50.321 100.501 50.321C99.8692 50.321 99.3082 49.2201 99.3082 48.5409H99.294Z" fill="#78797F"/>
<path d="M103.299 52.6872C103.299 52.008 103.846 51.3074 104.563 51.3074C104.578 51.3074 104.592 51.3217 104.592 51.336C104.521 51.5148 104.485 51.7078 104.485 51.9008C104.485 52.4656 104.748 52.966 105.117 52.966C105.352 52.966 105.636 52.7587 105.898 52.1939C106.339 51.2717 106.751 50.3423 107.12 49.463C106.651 49.8634 106.204 50.0135 105.842 50.0135C105.295 50.0135 104.94 49.6846 104.94 49.3343C104.94 47.2898 107.283 42.8574 108.427 42.8574C108.959 42.8574 109.691 43.3578 109.691 43.9369C109.691 44.087 109.634 44.2658 109.513 44.4087C110.06 44.4516 110.664 44.8377 110.664 45.3881C110.664 45.5526 110.621 45.717 110.5 45.8886C109.442 47.5185 108.498 49.3844 107.29 52.0438C106.85 53.0375 105.977 54.0026 105.082 54.0026C103.789 54.0026 103.285 53.352 103.285 52.68L103.299 52.6872ZM107.539 48.4908C108.008 47.3183 108.391 46.3103 108.647 45.7027C108.675 45.5669 108.689 45.4668 108.689 45.3881C108.689 45.2523 108.647 45.2094 108.59 45.2094C107.986 45.2094 106.147 47.9046 106.147 48.884C106.147 48.9411 106.254 49.0341 106.459 49.0341C106.694 49.0341 107.049 48.9126 107.546 48.4836L107.539 48.4908Z" fill="#78797F"/>
<path d="M110.38 48.4623C110.38 47.5115 111.438 45.4383 111.97 44.0443C112.105 43.7011 112.425 43.6296 112.68 43.6296C113.121 43.6296 113.788 44.1158 113.788 44.6233C113.788 44.7592 113.746 44.8879 113.689 44.9808C112.617 46.6107 111.644 48.4766 111.644 48.7769C111.644 48.9127 111.686 49.0128 111.779 49.0128C111.807 49.0128 111.835 48.9985 111.885 48.9699C112.048 48.8484 112.737 48.2693 113.433 47.3828C113.859 46.8967 115.301 45.1023 115.571 44.7306C115.613 44.6734 115.642 44.6448 115.692 44.6448C115.826 44.6448 115.912 44.9236 115.912 44.9236C115.514 45.5599 114.633 46.8038 113.803 47.9476C113.334 48.5981 112.51 49.6705 111.949 50.1423C111.814 50.2638 111.686 50.3067 111.551 50.3067C110.934 50.3067 110.401 49.1486 110.401 48.4695L110.38 48.4623ZM112.901 42.2642C112.901 41.7423 113.504 40.8845 114.08 40.8845C114.74 40.8845 115.244 41.5493 115.244 41.9354C115.244 42.3214 114.712 43.2079 114.314 43.2079C113.81 43.2079 112.901 42.7217 112.901 42.2571V42.2642Z" fill="#78797F"/>
<path d="M111.629 52.6872C111.629 52.008 112.176 51.3074 112.893 51.3074C112.908 51.3074 112.922 51.3217 112.922 51.336C112.851 51.5148 112.815 51.7078 112.815 51.9008C112.815 52.4656 113.078 52.966 113.447 52.966C113.682 52.966 113.966 52.7587 114.229 52.1939C114.669 51.2717 115.081 50.3423 115.45 49.463C114.981 49.8634 114.534 50.0135 114.172 50.0135C113.625 50.0135 113.27 49.6846 113.27 49.3343C113.27 47.2898 115.613 42.8574 116.757 42.8574C117.289 42.8574 118.021 43.3578 118.021 43.9369C118.021 44.087 117.964 44.2658 117.843 44.4087C118.39 44.4516 118.994 44.8377 118.994 45.3881C118.994 45.5526 118.951 45.717 118.83 45.8886C117.772 47.5185 116.828 49.3844 115.62 52.0438C115.18 53.0375 114.307 54.0026 113.412 54.0026C112.119 54.0026 111.615 53.352 111.615 52.68L111.629 52.6872ZM115.869 48.4908C116.338 47.3183 116.721 46.3103 116.977 45.7027C117.005 45.5669 117.019 45.4668 117.019 45.3881C117.019 45.2523 116.977 45.2094 116.92 45.2094C116.316 45.2094 114.477 47.9046 114.477 48.884C114.477 48.9411 114.584 49.0341 114.79 49.0341C115.024 49.0341 115.379 48.9126 115.876 48.4836L115.869 48.4908Z" fill="#78797F"/>
<path d="M118.333 49.3417C118.333 47.2971 120.883 42.9219 122.026 42.9219C122.097 42.9219 122.175 42.9362 122.275 42.9791C122.601 43.115 123.127 43.5153 123.127 43.9585C123.127 44.1087 123.056 44.2731 122.907 44.4161C123.454 44.459 124.071 44.8593 124.071 45.3955C124.071 45.5599 124.029 45.7243 123.894 45.8959C123.439 46.5035 122.758 47.6045 122.566 48.1478C122.445 48.4766 122.403 48.684 122.403 48.8269C122.403 49.0057 122.474 49.0772 122.566 49.0772C122.672 49.0772 122.8 48.9914 122.921 48.8698C123.07 48.734 123.631 48.0549 124.213 47.3757C124.64 46.8896 126.081 45.0952 126.351 44.7235C126.394 44.6663 126.422 44.6377 126.472 44.6377C126.607 44.6377 126.692 44.9165 126.692 44.9165C126.294 45.5527 125.428 46.7966 124.583 47.9405C123.745 49.0986 122.843 50.3425 122.303 50.3425C121.863 50.3425 121.423 49.9851 121.373 49.0057C120.798 49.5704 120.073 50.3997 119.633 50.3997C119.072 50.3997 118.319 49.9422 118.319 49.3345L118.333 49.3417ZM119.789 49.2988C120.45 48.7483 121.707 46.5679 121.898 46.0389C121.927 45.9817 121.927 45.9173 121.927 45.8744C121.927 45.71 121.806 45.5813 121.678 45.5813C121.195 45.5813 119.413 48.4123 119.413 49.1987C119.413 49.3345 119.47 49.3917 119.562 49.3917C119.633 49.3917 119.711 49.3631 119.796 49.3059L119.789 49.2988Z" fill="#78797F"/>
<path d="M123.95 49.3058C123.95 48.2406 126.266 43.0648 127.409 43.0648C127.778 43.0648 128.424 43.4938 128.424 43.9513C128.424 44.1157 128.353 44.2944 128.126 44.4732C127.743 44.802 126.315 46.6536 126.315 46.9038C126.315 46.9324 126.33 46.9467 126.344 46.9467C126.656 46.9467 128.716 44.2801 129.333 44.0228C129.88 44.0657 130.498 44.466 130.498 45.0022C130.498 45.1666 130.456 45.331 130.321 45.5026C129.866 46.1103 129.184 47.2112 128.993 47.7545C128.872 48.0834 128.829 48.2907 128.829 48.4337C128.829 48.6124 128.9 48.6839 128.993 48.6839C129.333 48.6839 130.051 47.7617 130.392 47.3613C130.818 46.8752 132.259 45.0808 132.529 44.7091C132.572 44.6519 132.6 44.6233 132.65 44.6233C132.785 44.6233 132.87 44.9021 132.87 44.9021C132.472 45.5383 131.606 46.7823 130.761 47.9261C130.129 48.7982 129.021 49.9707 128.304 49.9707C127.878 49.9707 127.579 49.556 127.579 48.4408C127.579 47.49 127.856 47.104 127.856 47.104C127.665 47.104 127.118 47.5329 126.734 48.0047C126.187 48.6696 125.719 49.5918 125.499 50.228C125.428 50.4354 125.307 50.5283 125.144 50.5283C124.803 50.5283 123.936 49.9492 123.936 49.2844L123.95 49.3058Z" fill="#78797F"/>
<path d="M130.505 48.8626C130.505 47.9904 131.386 46.146 132.316 44.3874C131.4 44.0728 131.286 43.5867 131.286 43.1149C131.286 42.9504 131.372 42.8932 131.492 42.8932C131.755 42.8932 132.408 42.979 133.069 43.0005C133.672 41.9067 134.177 40.9559 134.368 40.4626C134.503 40.1195 134.823 40.048 135.079 40.048C135.519 40.048 136.243 40.5984 136.243 41.0989C136.243 41.2347 136.201 41.3634 136.137 41.4563C135.782 42.0068 135.384 42.5715 134.986 43.1435C135.313 43.3794 135.767 43.6153 135.767 43.9012C135.767 44.0657 135.682 44.1086 135.562 44.1229L134.191 44.2873C133.232 45.6956 132.309 47.1468 131.776 48.4694C131.72 48.6338 131.705 48.7839 131.705 48.884C131.705 49.0342 131.748 49.1199 131.869 49.1199C131.954 49.1199 132.103 49.0628 132.295 48.9412C132.529 48.7911 133.296 48.212 133.942 47.3828C134.368 46.8966 135.81 45.1023 136.08 44.7305C136.123 44.6733 136.151 44.6447 136.201 44.6447C136.336 44.6447 136.421 44.9235 136.421 44.9235C136.023 45.5598 135.143 46.8037 134.312 47.9475C133.843 48.5981 132.884 49.6847 132.309 50.1422C132.188 50.228 132.075 50.2781 131.926 50.2781C131.308 50.2781 130.512 49.5346 130.512 48.8697L130.505 48.8626Z" fill="#78797F"/>
<path d="M134.021 48.5553C134.021 46.332 136.109 43.0292 137.714 43.0292C138.218 43.0292 138.303 43.8156 138.743 44.1087C139.034 44.3017 139.595 44.3732 139.595 45.131C139.595 45.8458 136.634 47.8118 135.37 48.4838C135.342 48.6911 135.327 48.8984 135.327 49.0915C135.327 49.4203 135.477 49.6133 135.796 49.6133C136.812 49.6133 137.976 48.5338 138.963 47.39C139.389 46.9039 140.831 45.1095 141.101 44.7378C141.144 44.6806 141.172 44.652 141.222 44.652C141.357 44.652 141.442 44.9308 141.442 44.9308C141.044 45.567 140.178 46.7967 139.333 47.9548C138.317 49.3488 136.904 50.5355 135.974 50.5355C135.413 50.5355 134.014 49.692 134.014 48.5624L134.021 48.5553ZM138.26 44.9093C138.218 44.895 138.154 44.8807 138.111 44.8807C137.081 45.131 136.094 46.332 135.626 47.6259C137.422 46.3963 137.983 45.4741 138.26 44.9093Z" fill="#78797F"/>
<path d="M141.52 49.3419C141.52 47.0114 143.949 43.7658 144.851 43.0437C145.014 42.9579 145.114 42.9222 145.22 42.9222C145.646 42.9222 146.072 43.3368 146.307 43.6943C146.967 42.2859 147.542 40.9491 148.103 39.5765C148.238 39.2334 148.558 39.1619 148.814 39.1619C149.254 39.1619 149.978 39.7123 149.978 40.2128C149.978 40.3486 149.936 40.4773 149.879 40.5702C148.288 42.7077 145.611 47.905 145.611 48.8415C145.611 49.0202 145.682 49.0917 145.774 49.0917C145.881 49.0917 146.008 49.0059 146.129 48.8844C146.278 48.7486 146.839 48.0694 147.429 47.3903C147.855 46.9041 149.296 45.1098 149.566 44.738C149.609 44.6808 149.637 44.6522 149.687 44.6522C149.822 44.6522 149.907 44.931 149.907 44.931C149.509 45.5673 148.643 46.8112 147.798 47.955C146.96 49.1132 146.058 50.3571 145.518 50.3571C145.078 50.3571 144.638 49.9996 144.588 49.0202C144.013 49.585 143.296 50.4143 142.848 50.4143C142.287 50.4143 141.534 49.9567 141.534 49.3491L141.52 49.3419ZM142.976 49.299C143.48 48.8844 144.51 47.2687 145.05 46.2893L145.391 45.5887C145.405 45.5458 145.419 45.503 145.419 45.4529C145.419 45.2885 145.298 45.1384 145.17 45.1384C144.688 45.1384 142.593 48.3983 142.593 49.1846C142.593 49.3205 142.649 49.3777 142.742 49.3777C142.813 49.3777 142.891 49.3491 142.976 49.2919V49.299Z" fill="#78797F"/>
<path d="M147.521 48.5552C147.521 46.3319 149.609 43.0291 151.214 43.0291C151.718 43.0291 151.803 43.8155 152.244 44.1086C152.535 44.3016 153.096 44.3731 153.096 45.1309C153.096 45.8458 150.134 47.8117 148.87 48.4837C148.842 48.6911 148.828 48.8984 148.828 49.0914C148.828 49.4202 148.977 49.6133 149.296 49.6133C150.312 49.6133 151.477 48.5338 152.464 47.39C152.89 46.9038 154.331 45.1095 154.601 44.7377C154.644 44.6805 154.672 44.6519 154.722 44.6519C154.857 44.6519 154.942 44.9307 154.942 44.9307C154.544 45.567 153.678 46.7966 152.833 47.9547C151.817 49.3488 150.404 50.5355 149.474 50.5355C148.913 50.5355 147.514 49.6919 147.514 48.5624L147.521 48.5552ZM151.761 44.9093C151.718 44.895 151.654 44.8807 151.612 44.8807C150.582 45.1309 149.595 46.3319 149.126 47.6259C150.923 46.3963 151.484 45.474 151.761 44.9093Z" fill="#78797F"/>
<path d="M154.694 49.6061C156.86 45.2167 159.615 39.9694 159.771 39.3332C159.878 38.9328 160.332 38.8113 160.652 38.8113C161.341 38.8113 162.363 39.2974 162.363 40.0409C162.363 40.1624 162.335 40.2911 162.278 40.4269L160.964 44.8593C161.909 43.7297 164.984 38.99 165.161 38.7041C165.261 38.5253 165.381 38.4681 165.531 38.4681C166.546 38.4681 167.356 39.4618 167.356 39.8908C167.356 40.0981 167.327 40.0695 167.079 40.5699C164.65 45.3168 163.94 47.0897 163.13 50.1352C163.13 50.5212 162.747 50.5355 162.747 50.5355C162.349 50.5355 161.419 49.792 161.419 49.3774C161.433 49.1415 162.733 45.6885 163.791 42.7503C162.463 44.8736 160.524 48.3837 160.24 48.8126C160.169 48.9342 160.062 48.977 159.963 48.977C159.459 48.977 158.741 47.9262 158.741 47.5258L159.892 43.6583C158.315 46.1604 156.817 49.1129 156.313 50.3139C156.213 50.5498 156.093 50.5927 155.972 50.5927C155.617 50.5927 154.694 50.0279 154.694 49.599V49.6061Z" fill="#78797F"/>
<path d="M164.479 48.5554C164.479 46.3321 166.567 43.0293 168.172 43.0293C168.676 43.0293 168.762 43.8157 169.202 44.1088C169.493 44.3018 170.054 44.3733 170.054 45.1311C170.054 45.846 167.093 47.8119 165.829 48.4839C165.8 48.6912 165.786 48.8986 165.786 49.0916C165.786 49.4204 165.935 49.6134 166.255 49.6134C167.27 49.6134 168.435 48.534 169.422 47.3901C169.848 46.904 171.29 45.1096 171.56 44.7379C171.602 44.6807 171.631 44.6521 171.68 44.6521C171.815 44.6521 171.9 44.9309 171.9 44.9309C171.503 45.5672 170.636 46.7968 169.791 47.9549C168.776 49.3489 167.363 50.5357 166.432 50.5357C165.871 50.5357 164.472 49.6921 164.472 48.5626L164.479 48.5554ZM168.719 44.9095C168.676 44.8952 168.612 44.8809 168.57 44.8809C167.54 45.1311 166.553 46.3321 166.084 47.626C167.881 46.3964 168.442 45.4742 168.719 44.9095ZM168.854 42.5217C168.854 42.4788 168.911 42.4145 169.06 42.3573C170.196 41.8998 170.104 40.4628 170.679 40.4628C171.311 40.4628 171.666 40.8346 171.666 41.2778C171.666 41.8998 170.956 42.6575 169.415 42.6575C169.088 42.6575 168.854 42.6147 168.854 42.5217Z" fill="#78797F"/>
<path d="M168.783 51.2931C168.868 49.7775 169.784 48.1976 170.856 46.7392C170.665 45.7026 170.579 44.7375 170.579 44.3229C170.579 43.7152 171.254 43.3006 171.772 43.3006C172.099 43.3006 172.376 43.465 172.376 43.8511C172.376 44.0727 172.362 44.4301 172.362 44.8591C172.909 44.2085 173.406 43.6009 173.818 43.0647C173.874 42.9932 173.938 42.9646 173.995 42.9646C174.613 42.9646 174.982 43.8082 174.982 44.3443C174.982 44.6589 174.791 44.7733 174.627 44.8662C174.201 45.1307 173.313 45.9171 172.404 46.9251C172.461 48.0189 172.625 48.9697 173.008 48.9697C173.171 48.8482 173.86 48.2691 174.556 47.3826C174.982 46.8965 176.424 45.1021 176.694 44.7304C176.736 44.6732 176.765 44.6446 176.815 44.6446C176.949 44.6446 177.035 44.9234 177.035 44.9234C176.637 45.5597 175.756 46.8036 174.926 47.9474C174.457 48.5979 173.626 49.6703 173.072 50.1421C172.951 50.2493 172.838 50.2779 172.717 50.2779C172.056 50.2779 171.566 49.3915 171.233 48.2905C170.352 49.4344 169.614 50.6497 169.436 51.6291C169.422 51.7363 169.329 51.7935 169.244 51.7935C169.053 51.7935 168.79 51.5862 168.79 51.3074L168.783 51.2931Z" fill="#78797F"/>
<path d="M174.755 48.4623C174.755 47.5115 175.813 45.4383 176.346 44.0443C176.481 43.7011 176.801 43.6296 177.056 43.6296C177.497 43.6296 178.164 44.1158 178.164 44.6233C178.164 44.7592 178.121 44.8879 178.065 44.9808C176.992 46.6107 176.019 48.4766 176.019 48.7769C176.019 48.9127 176.062 49.0128 176.154 49.0128C176.183 49.0128 176.211 48.9985 176.261 48.9699C176.424 48.8484 177.113 48.2693 177.809 47.3828C178.235 46.8967 179.677 45.1023 179.947 44.7306C179.989 44.6734 180.018 44.6448 180.067 44.6448C180.202 44.6448 180.287 44.9236 180.287 44.9236C179.89 45.5599 179.009 46.8038 178.178 47.9476C177.71 48.5981 176.886 49.6705 176.325 50.1423C176.19 50.2638 176.062 50.3067 175.927 50.3067C175.309 50.3067 174.777 49.1486 174.777 48.4695L174.755 48.4623ZM177.276 42.2642C177.276 41.7423 177.88 40.8845 178.455 40.8845C179.116 40.8845 179.62 41.5493 179.62 41.9354C179.62 42.3214 179.087 43.2079 178.69 43.2079C178.192 43.2079 177.276 42.7217 177.276 42.2571V42.2642Z" fill="#78797F"/>
<path d="M177.823 48.5697C177.823 46.8469 179.84 44.0159 181.182 42.9936C181.331 42.8721 181.495 42.8292 181.651 42.8292C182.375 42.8292 182.979 43.2581 182.979 43.9873C182.979 44.3733 183.348 44.5378 183.348 44.788C183.348 44.8595 183.32 44.9381 183.242 45.0239C182.965 45.3527 182.006 46.7253 181.786 47.5474C181.757 47.6332 181.679 47.6833 181.594 47.6833C181.281 47.6833 180.728 47.1757 180.728 46.8969C180.728 46.7754 180.891 46.5109 180.891 46.4394C180.891 46.3536 180.848 46.3035 180.77 46.3035C180.266 46.3035 179.194 48.584 179.194 49.2274C179.194 49.5063 179.414 49.6135 179.691 49.6135C180.706 49.6135 181.871 48.534 182.858 47.3902C183.284 46.904 184.726 45.1097 184.996 44.7379C185.038 44.6807 185.067 44.6521 185.116 44.6521C185.251 44.6521 185.336 44.9309 185.336 44.9309C184.939 45.5672 184.072 46.7968 183.227 47.9549C182.212 49.349 180.99 50.6644 179.74 50.6644C179.066 50.6644 177.823 49.8065 177.823 48.5769V48.5697Z" fill="#78797F"/>
<path d="M182.617 48.9201C182.617 46.7254 184.839 42.915 185.961 42.915C186.302 42.915 186.522 43.3726 186.906 43.6085C187.659 43.6085 188.184 44.2304 188.184 44.7237C188.184 44.9882 187.758 45.9247 187.154 46.947H187.183C187.595 46.947 188.099 46.7254 188.568 46.1749C189.008 45.6531 189.64 44.9739 189.818 44.7237C189.86 44.6665 189.889 44.6379 189.938 44.6379C190.073 44.6379 190.158 44.9167 190.158 44.9167C189.896 45.3457 189.448 46.0105 189.022 46.6182C188.419 47.476 187.609 47.8621 186.934 47.8621C186.814 47.8621 186.714 47.8621 186.608 47.8335C185.727 49.1703 184.662 50.4143 183.93 50.4143C182.986 50.4143 182.617 49.8066 182.617 48.9201ZM185.727 47.1686C185.656 47.0042 185.606 46.8112 185.606 46.6039C185.606 46.2893 185.677 45.939 185.883 45.5244H185.841C185.209 45.5244 183.646 47.7048 183.646 49.4063C183.646 49.5421 183.703 49.5993 183.795 49.5993C184.193 49.5993 185.166 48.291 185.727 47.1686Z" fill="#78797F"/>
<path d="M350.795 2.93106V49.8708H227.194V2.93106H350.795ZM353.707 0H224.282V52.8019H353.707V0Z" fill="#78797F"/>
<path d="M240.298 17.5853V9.44H242.366V17.5853H240.298Z" fill="#78797F"/>
<path d="M243.396 17.5853V11.6197H245.429V12.3195C245.782 11.8377 246.358 11.505 247.168 11.505C248.402 11.505 249.436 12.2507 249.436 14.0748V17.5853H247.403V14.4189C247.403 13.7994 247.098 13.2603 246.405 13.2603C245.723 13.2603 245.429 13.7994 245.429 14.4189V17.5853H243.396Z" fill="#78797F"/>
<path d="M252.51 17.7C251.253 17.7 250.301 17.1493 250.113 15.9792L251.711 15.5547C251.793 15.7612 251.934 16.1627 252.475 16.1627C252.757 16.1627 252.992 16.0365 252.992 15.7841C252.992 15.6579 252.921 15.4973 252.604 15.4056L251.711 15.0843C250.7 14.7402 250.266 14.0863 250.266 13.3176C250.266 12.1704 251.335 11.505 252.569 11.505C253.767 11.505 254.637 12.1704 254.837 13.1685L253.25 13.5471C253.121 13.0882 252.827 13.0193 252.651 13.0193C252.334 13.0193 252.228 13.2258 252.228 13.352C252.228 13.4897 252.31 13.6503 252.663 13.7421L253.497 14.0404C254.085 14.2239 254.989 14.6713 254.989 15.7841C254.989 16.9887 253.932 17.7 252.51 17.7Z" fill="#78797F"/>
<path d="M258.356 17.6541C257.134 17.6541 256.252 17.0805 256.252 15.5891V13.1799H255.324V11.6197H256.252V10.0939H258.285V11.6197H259.578V13.1799H258.285V15.2908C258.285 15.5662 258.45 15.9103 259.026 15.9103C259.167 15.9103 259.39 15.8874 259.601 15.8186V17.3214C259.366 17.5738 258.814 17.6541 258.356 17.6541Z" fill="#78797F"/>
<path d="M260.38 17.5853V11.6197H262.413V17.5853H260.38ZM260.38 11.1494V9.44H262.413V11.1494H260.38Z" fill="#78797F"/>
<path d="M266.182 17.6541C264.96 17.6541 264.079 17.0805 264.079 15.5891V13.1799H263.15V11.6197H264.079V10.0939H266.112V11.6197H267.404V13.1799H266.112V15.2908C266.112 15.5662 266.276 15.9103 266.852 15.9103C266.993 15.9103 267.216 15.8874 267.428 15.8186V17.3214C267.193 17.5738 266.64 17.6541 266.182 17.6541Z" fill="#78797F"/>
<path d="M274.246 11.6197L274.235 17.5853H272.202V16.8855C271.849 17.3673 271.273 17.7 270.463 17.7C269.229 17.7 268.195 16.9543 268.195 15.1302L268.206 11.6197H270.239L270.228 14.7861C270.228 15.4056 270.533 15.9448 271.226 15.9448C271.908 15.9448 272.202 15.4056 272.202 14.7861L272.213 11.6197H274.246Z" fill="#78797F"/>
<path d="M278.013 17.6541C276.791 17.6541 275.91 17.0805 275.91 15.5891V13.1799H274.982V11.6197H275.91V10.0939H277.943V11.6197H279.235V13.1799H277.943V15.2908C277.943 15.5662 278.107 15.9103 278.683 15.9103C278.824 15.9103 279.047 15.8874 279.259 15.8186V17.3214C279.024 17.5738 278.472 17.6541 278.013 17.6541Z" fill="#78797F"/>
<path d="M282.953 17.7C281.343 17.7 279.687 16.6331 279.687 14.6025C279.687 12.5719 281.343 11.505 282.953 11.505C284.551 11.505 286.208 12.5719 286.208 14.6025C286.208 16.6331 284.551 17.7 282.953 17.7ZM281.684 14.6025C281.684 15.3941 282.248 15.9218 282.953 15.9218C283.647 15.9218 284.211 15.3941 284.211 14.6025C284.211 13.8109 283.647 13.2832 282.953 13.2832C282.248 13.2832 281.684 13.8109 281.684 14.6025Z" fill="#78797F"/>
<path d="M295.644 17.5853H293.611V17.0231H293.576C293.529 17.1264 292.953 17.7 291.884 17.7C290.521 17.7 288.993 16.6904 288.993 14.6025C288.993 12.5146 290.521 11.505 291.884 11.505C292.953 11.505 293.529 12.0786 293.576 12.1819H293.611V9.44H295.644V17.5853ZM290.991 14.6025C290.991 15.44 291.614 15.9448 292.319 15.9448C293.047 15.9448 293.658 15.4514 293.658 14.6025C293.658 13.7536 293.047 13.2603 292.319 13.2603C291.614 13.2603 290.991 13.765 290.991 14.6025Z" fill="#78797F"/>
<path d="M299.627 17.7C297.911 17.7 296.383 16.5757 296.383 14.614C296.383 12.5949 297.934 11.505 299.521 11.505C301.072 11.505 302.94 12.549 302.517 15.3711H298.369C298.616 15.853 299.145 16.0939 299.85 16.0939C300.343 16.0939 300.79 16.0021 301.236 15.7038L302.13 16.6331C301.636 17.2411 300.778 17.7 299.627 17.7ZM298.299 13.9715H300.731C300.59 13.4094 300.061 13.157 299.544 13.157C299.027 13.157 298.51 13.4094 298.299 13.9715Z" fill="#78797F"/>
<path d="M303.321 17.5853V9.44H305.354V17.5853H303.321Z" fill="#78797F"/>
<path d="M240.298 39.2678V20.65H247.815C252.62 20.65 256.572 24.5309 256.572 29.9589C256.572 35.3869 252.62 39.2678 247.815 39.2678H240.298ZM244.844 34.9149H247.66C250.45 34.9149 251.819 32.8434 251.819 29.9589C251.819 27.0745 250.45 25.0029 247.66 25.0029H244.844V34.9149Z" fill="#78797F"/>
<path d="M264.819 39.53C261.047 39.53 257.689 36.9602 257.689 32.4762C257.689 27.8611 261.099 25.37 264.586 25.37C267.996 25.37 272.103 27.7562 271.173 34.2069H262.055C262.597 35.3082 263.759 35.8589 265.309 35.8589C266.394 35.8589 267.376 35.6491 268.357 34.9674L270.321 37.0914C269.236 38.4811 267.35 39.53 264.819 39.53ZM261.9 31.0078H267.247C266.937 29.7229 265.774 29.146 264.638 29.146C263.501 29.146 262.365 29.7229 261.9 31.0078Z" fill="#78797F"/>
<path d="M272.688 44.25V25.6322H277.157V26.9171H277.235C277.338 26.6811 278.604 25.37 280.955 25.37C283.951 25.37 287.309 27.6776 287.309 32.45C287.309 37.2225 283.951 39.53 280.955 39.53C278.604 39.53 277.338 38.2189 277.235 37.9829H277.157V44.25H272.688ZM277.054 32.45C277.054 34.3905 278.397 35.518 279.999 35.518C281.549 35.518 282.918 34.3642 282.918 32.45C282.918 30.5358 281.549 29.382 279.999 29.382C278.397 29.382 277.054 30.5096 277.054 32.45Z" fill="#78797F"/>
<path d="M295.47 39.53C291.931 39.53 288.288 37.0914 288.288 32.45C288.288 27.8087 291.931 25.37 295.47 25.37C298.983 25.37 302.625 27.8087 302.625 32.45C302.625 37.0914 298.983 39.53 295.47 39.53ZM292.68 32.45C292.68 34.2594 293.92 35.4656 295.47 35.4656C296.994 35.4656 298.234 34.2594 298.234 32.45C298.234 30.6407 296.994 29.4345 295.47 29.4345C293.92 29.4345 292.68 30.6407 292.68 32.45Z" fill="#78797F"/>
<path d="M304.246 39.2678V25.6322H308.715V29.3558C309.154 27.1007 310.446 25.37 312.823 25.37C313.133 25.37 313.468 25.3962 313.83 25.5011V29.8278C313.494 29.7491 313.21 29.7229 312.848 29.7229C310.162 29.7229 308.715 31.506 308.715 33.9709V39.2678H304.246Z" fill="#78797F"/>
<path d="M321.466 39.4251C318.779 39.4251 316.842 38.114 316.842 34.7051V29.1985H314.801V25.6322H316.842V22.1447H321.311V25.6322H324.152V29.1985H321.311V34.0234C321.311 34.6527 321.672 35.4394 322.938 35.4394C323.248 35.4394 323.739 35.3869 324.204 35.2296V38.6647C323.687 39.2416 322.473 39.4251 321.466 39.4251Z" fill="#78797F"/>
<path d="M332.273 39.53C328.502 39.53 325.144 36.9602 325.144 32.4762C325.144 27.8611 328.554 25.37 332.041 25.37C335.451 25.37 339.558 27.7562 338.628 34.2069H329.509C330.052 35.3082 331.214 35.8589 332.764 35.8589C333.849 35.8589 334.831 35.6491 335.812 34.9674L337.775 37.0914C336.691 38.4811 334.805 39.53 332.273 39.53ZM329.354 31.0078H334.702C334.392 29.7229 333.229 29.146 332.093 29.146C330.956 29.146 329.819 29.7229 329.354 31.0078Z" fill="#78797F"/>
</g>
<defs>
<clipPath id="clip0_101_2011">
<rect width="354" height="59" fill="white"/>
</clipPath>
</defs>
</svg>
